<?xml version="1.0" encoding="utf-8" standalone="no"?>
<!DOCTYPE svg PUBLIC "-//W3C//DTD SVG 1.1//EN"
  "http://www.w3.org/Graphics/SVG/1.1/DTD/svg11.dtd">
<!-- Created with matplotlib (http://matplotlib.org/) -->
<svg height="288pt" version="1.1" viewBox="0 0 432 288" width="432pt" xmlns="http://www.w3.org/2000/svg" xmlns:xlink="http://www.w3.org/1999/xlink">
 <defs>
  <style type="text/css">
*{stroke-linecap:butt;stroke-linejoin:round;}
  </style>
 </defs>
 <g id="figure_1">
  <g id="patch_1">
   <path d="M 0 288 
L 432 288 
L 432 0 
L 0 0 
z
" style="fill:#ffffff;"/>
  </g>
  <g id="axes_1">
   <g id="patch_2">
    <path d="M 54 252 
L 388.8 252 
L 388.8 34.56 
L 54 34.56 
z
" style="fill:#ffffff;"/>
   </g>
   <g id="patch_3">
    <path clip-path="url(#p1e662c21e2)" d="M 54 252 
L 56.341368 252 
L 56.341368 235.820825 
L 54 235.820825 
z
" style="fill:#1f77b4;"/>
   </g>
   <g id="patch_4">
    <path clip-path="url(#p1e662c21e2)" d="M 56.341368 252 
L 58.682736 252 
L 58.682736 201.454559 
L 56.341368 201.454559 
z
" style="fill:#1f77b4;"/>
   </g>
   <g id="patch_5">
    <path clip-path="url(#p1e662c21e2)" d="M 58.682736 252 
L 61.024104 252 
L 61.024104 216.320865 
L 58.682736 216.320865 
z
" style="fill:#1f77b4;"/>
   </g>
   <g id="patch_6">
    <path clip-path="url(#p1e662c21e2)" d="M 61.024104 252 
L 63.365472 252 
L 63.365472 233.349543 
L 61.024104 233.349543 
z
" style="fill:#1f77b4;"/>
   </g>
   <g id="patch_7">
    <path clip-path="url(#p1e662c21e2)" d="M 63.365472 252 
L 65.70684 252 
L 65.70684 230.646578 
L 63.365472 230.646578 
z
" style="fill:#1f77b4;"/>
   </g>
   <g id="patch_8">
    <path clip-path="url(#p1e662c21e2)" d="M 65.70684 252 
L 68.048208 252 
L 68.048208 215.007997 
L 65.70684 215.007997 
z
" style="fill:#1f77b4;"/>
   </g>
   <g id="patch_9">
    <path clip-path="url(#p1e662c21e2)" d="M 68.048208 252 
L 70.389576 252 
L 70.389576 195.508037 
L 68.048208 195.508037 
z
" style="fill:#1f77b4;"/>
   </g>
   <g id="patch_10">
    <path clip-path="url(#p1e662c21e2)" d="M 70.389576 252 
L 72.730944 252 
L 72.730944 172.494222 
L 70.389576 172.494222 
z
" style="fill:#1f77b4;"/>
   </g>
   <g id="patch_11">
    <path clip-path="url(#p1e662c21e2)" d="M 72.730944 252 
L 75.072312 252 
L 75.072312 149.712091 
L 72.730944 149.712091 
z
" style="fill:#1f77b4;"/>
   </g>
   <g id="patch_12">
    <path clip-path="url(#p1e662c21e2)" d="M 75.072312 252 
L 77.41368 252 
L 77.41368 125.30818 
L 75.072312 125.30818 
z
" style="fill:#1f77b4;"/>
   </g>
   <g id="patch_13">
    <path clip-path="url(#p1e662c21e2)" d="M 77.41368 252 
L 79.755048 252 
L 79.755048 105.035945 
L 77.41368 105.035945 
z
" style="fill:#1f77b4;"/>
   </g>
   <g id="patch_14">
    <path clip-path="url(#p1e662c21e2)" d="M 79.755048 252 
L 82.096416 252 
L 82.096416 80.438965 
L 79.755048 80.438965 
z
" style="fill:#1f77b4;"/>
   </g>
   <g id="patch_15">
    <path clip-path="url(#p1e662c21e2)" d="M 82.096416 252 
L 84.437784 252 
L 84.437784 70.708292 
L 82.096416 70.708292 
z
" style="fill:#1f77b4;"/>
   </g>
   <g id="patch_16">
    <path clip-path="url(#p1e662c21e2)" d="M 84.437784 252 
L 86.779152 252 
L 86.779152 52.984566 
L 84.437784 52.984566 
z
" style="fill:#1f77b4;"/>
   </g>
   <g id="patch_17">
    <path clip-path="url(#p1e662c21e2)" d="M 86.779152 252 
L 89.12052 252 
L 89.12052 48.042002 
L 86.779152 48.042002 
z
" style="fill:#1f77b4;"/>
   </g>
   <g id="patch_18">
    <path clip-path="url(#p1e662c21e2)" d="M 89.12052 252 
L 91.461888 252 
L 91.461888 44.914286 
L 89.12052 44.914286 
z
" style="fill:#1f77b4;"/>
   </g>
   <g id="patch_19">
    <path clip-path="url(#p1e662c21e2)" d="M 91.461888 252 
L 93.803256 252 
L 93.803256 45.918244 
L 91.461888 45.918244 
z
" style="fill:#1f77b4;"/>
   </g>
   <g id="patch_20">
    <path clip-path="url(#p1e662c21e2)" d="M 93.803256 252 
L 96.144624 252 
L 96.144624 51.015263 
L 93.803256 51.015263 
z
" style="fill:#1f77b4;"/>
   </g>
   <g id="patch_21">
    <path clip-path="url(#p1e662c21e2)" d="M 96.144624 252 
L 98.485992 252 
L 98.485992 55.494462 
L 96.144624 55.494462 
z
" style="fill:#1f77b4;"/>
   </g>
   <g id="patch_22">
    <path clip-path="url(#p1e662c21e2)" d="M 98.485992 252 
L 100.82736 252 
L 100.82736 72.909278 
L 98.485992 72.909278 
z
" style="fill:#1f77b4;"/>
   </g>
   <g id="patch_23">
    <path clip-path="url(#p1e662c21e2)" d="M 100.82736 252 
L 103.168728 252 
L 103.168728 84.686481 
L 100.82736 84.686481 
z
" style="fill:#1f77b4;"/>
   </g>
   <g id="patch_24">
    <path clip-path="url(#p1e662c21e2)" d="M 103.168728 252 
L 105.510096 252 
L 105.510096 104.186441 
L 103.168728 104.186441 
z
" style="fill:#1f77b4;"/>
   </g>
   <g id="patch_25">
    <path clip-path="url(#p1e662c21e2)" d="M 105.510096 252 
L 107.851464 252 
L 107.851464 117.701265 
L 105.510096 117.701265 
z
" style="fill:#1f77b4;"/>
   </g>
   <g id="patch_26">
    <path clip-path="url(#p1e662c21e2)" d="M 107.851464 252 
L 110.192832 252 
L 110.192832 133.648757 
L 107.851464 133.648757 
z
" style="fill:#1f77b4;"/>
   </g>
   <g id="patch_27">
    <path clip-path="url(#p1e662c21e2)" d="M 110.192832 252 
L 112.5342 252 
L 112.5342 143.031906 
L 110.192832 143.031906 
z
" style="fill:#1f77b4;"/>
   </g>
   <g id="patch_28">
    <path clip-path="url(#p1e662c21e2)" d="M 112.5342 252 
L 114.875568 252 
L 114.875568 156.701185 
L 112.5342 156.701185 
z
" style="fill:#1f77b4;"/>
   </g>
   <g id="patch_29">
    <path clip-path="url(#p1e662c21e2)" d="M 114.875568 252 
L 117.216936 252 
L 117.216936 160.137812 
L 114.875568 160.137812 
z
" style="fill:#1f77b4;"/>
   </g>
   <g id="patch_30">
    <path clip-path="url(#p1e662c21e2)" d="M 117.216936 252 
L 119.558304 252 
L 119.558304 168.478389 
L 117.216936 168.478389 
z
" style="fill:#1f77b4;"/>
   </g>
   <g id="patch_31">
    <path clip-path="url(#p1e662c21e2)" d="M 119.558304 252 
L 121.899672 252 
L 121.899672 172.301153 
L 119.558304 172.301153 
z
" style="fill:#1f77b4;"/>
   </g>
   <g id="patch_32">
    <path clip-path="url(#p1e662c21e2)" d="M 121.899672 252 
L 124.24104 252 
L 124.24104 182.147668 
L 121.899672 182.147668 
z
" style="fill:#1f77b4;"/>
   </g>
   <g id="patch_33">
    <path clip-path="url(#p1e662c21e2)" d="M 124.24104 252 
L 126.582408 252 
L 126.582408 181.298165 
L 124.24104 181.298165 
z
" style="fill:#1f77b4;"/>
   </g>
   <g id="patch_34">
    <path clip-path="url(#p1e662c21e2)" d="M 126.582408 252 
L 128.923776 252 
L 128.923776 186.163501 
L 126.582408 186.163501 
z
" style="fill:#1f77b4;"/>
   </g>
   <g id="patch_35">
    <path clip-path="url(#p1e662c21e2)" d="M 128.923776 252 
L 131.265144 252 
L 131.265144 189.291218 
L 128.923776 189.291218 
z
" style="fill:#1f77b4;"/>
   </g>
   <g id="patch_36">
    <path clip-path="url(#p1e662c21e2)" d="M 131.265144 252 
L 133.606512 252 
L 133.606512 192.032796 
L 131.265144 192.032796 
z
" style="fill:#1f77b4;"/>
   </g>
   <g id="patch_37">
    <path clip-path="url(#p1e662c21e2)" d="M 133.606512 252 
L 135.94788 252 
L 135.94788 193.152596 
L 133.606512 193.152596 
z
" style="fill:#1f77b4;"/>
   </g>
   <g id="patch_38">
    <path clip-path="url(#p1e662c21e2)" d="M 135.94788 252 
L 138.289248 252 
L 138.289248 194.61992 
L 135.94788 194.61992 
z
" style="fill:#1f77b4;"/>
   </g>
   <g id="patch_39">
    <path clip-path="url(#p1e662c21e2)" d="M 138.289248 252 
L 140.630616 252 
L 140.630616 197.824863 
L 138.289248 197.824863 
z
" style="fill:#1f77b4;"/>
   </g>
   <g id="patch_40">
    <path clip-path="url(#p1e662c21e2)" d="M 140.630616 252 
L 142.971984 252 
L 142.971984 197.438726 
L 140.630616 197.438726 
z
" style="fill:#1f77b4;"/>
   </g>
   <g id="patch_41">
    <path clip-path="url(#p1e662c21e2)" d="M 142.971984 252 
L 145.313352 252 
L 145.313352 200.025849 
L 142.971984 200.025849 
z
" style="fill:#1f77b4;"/>
   </g>
   <g id="patch_42">
    <path clip-path="url(#p1e662c21e2)" d="M 145.313352 252 
L 147.65472 252 
L 147.65472 199.137732 
L 145.313352 199.137732 
z
" style="fill:#1f77b4;"/>
   </g>
   <g id="patch_43">
    <path clip-path="url(#p1e662c21e2)" d="M 147.65472 252 
L 149.996088 252 
L 149.996088 203.385248 
L 147.65472 203.385248 
z
" style="fill:#1f77b4;"/>
   </g>
   <g id="patch_44">
    <path clip-path="url(#p1e662c21e2)" d="M 149.996088 252 
L 152.337456 252 
L 152.337456 204.659503 
L 149.996088 204.659503 
z
" style="fill:#1f77b4;"/>
   </g>
   <g id="patch_45">
    <path clip-path="url(#p1e662c21e2)" d="M 152.337456 252 
L 154.678824 252 
L 154.678824 203.462476 
L 152.337456 203.462476 
z
" style="fill:#1f77b4;"/>
   </g>
   <g id="patch_46">
    <path clip-path="url(#p1e662c21e2)" d="M 154.678824 252 
L 157.020192 252 
L 157.020192 203.385248 
L 154.678824 203.385248 
z
" style="fill:#1f77b4;"/>
   </g>
   <g id="patch_47">
    <path clip-path="url(#p1e662c21e2)" d="M 157.020192 252 
L 159.36156 252 
L 159.36156 204.350593 
L 157.020192 204.350593 
z
" style="fill:#1f77b4;"/>
   </g>
   <g id="patch_48">
    <path clip-path="url(#p1e662c21e2)" d="M 159.36156 252 
L 161.702928 252 
L 161.702928 206.319896 
L 159.36156 206.319896 
z
" style="fill:#1f77b4;"/>
   </g>
   <g id="patch_49">
    <path clip-path="url(#p1e662c21e2)" d="M 161.702928 252 
L 164.044296 252 
L 164.044296 206.821875 
L 161.702928 206.821875 
z
" style="fill:#1f77b4;"/>
   </g>
   <g id="patch_50">
    <path clip-path="url(#p1e662c21e2)" d="M 164.044296 252 
L 166.385664 252 
L 166.385664 207.632764 
L 164.044296 207.632764 
z
" style="fill:#1f77b4;"/>
   </g>
   <g id="patch_51">
    <path clip-path="url(#p1e662c21e2)" d="M 166.385664 252 
L 168.727032 252 
L 168.727032 210.14266 
L 166.385664 210.14266 
z
" style="fill:#1f77b4;"/>
   </g>
   <g id="patch_52">
    <path clip-path="url(#p1e662c21e2)" d="M 168.727032 252 
L 171.0684 252 
L 171.0684 211.803053 
L 168.727032 211.803053 
z
" style="fill:#1f77b4;"/>
   </g>
   <g id="patch_53">
    <path clip-path="url(#p1e662c21e2)" d="M 171.0684 252 
L 173.409768 252 
L 173.409768 210.528798 
L 171.0684 210.528798 
z
" style="fill:#1f77b4;"/>
   </g>
   <g id="patch_54">
    <path clip-path="url(#p1e662c21e2)" d="M 173.409768 252 
L 175.751136 252 
L 175.751136 211.185232 
L 173.409768 211.185232 
z
" style="fill:#1f77b4;"/>
   </g>
   <g id="patch_55">
    <path clip-path="url(#p1e662c21e2)" d="M 175.751136 252 
L 178.092504 252 
L 178.092504 213.386218 
L 175.751136 213.386218 
z
" style="fill:#1f77b4;"/>
   </g>
   <g id="patch_56">
    <path clip-path="url(#p1e662c21e2)" d="M 178.092504 252 
L 180.433872 252 
L 180.433872 215.54859 
L 178.092504 215.54859 
z
" style="fill:#1f77b4;"/>
   </g>
   <g id="patch_57">
    <path clip-path="url(#p1e662c21e2)" d="M 180.433872 252 
L 182.77524 252 
L 182.77524 214.467404 
L 180.433872 214.467404 
z
" style="fill:#1f77b4;"/>
   </g>
   <g id="patch_58">
    <path clip-path="url(#p1e662c21e2)" d="M 182.77524 252 
L 185.116608 252 
L 185.116608 216.861458 
L 182.77524 216.861458 
z
" style="fill:#1f77b4;"/>
   </g>
   <g id="patch_59">
    <path clip-path="url(#p1e662c21e2)" d="M 185.116608 252 
L 187.457976 252 
L 187.457976 217.633734 
L 185.116608 217.633734 
z
" style="fill:#1f77b4;"/>
   </g>
   <g id="patch_60">
    <path clip-path="url(#p1e662c21e2)" d="M 187.457976 252 
L 189.799344 252 
L 189.799344 220.14363 
L 187.457976 220.14363 
z
" style="fill:#1f77b4;"/>
   </g>
   <g id="patch_61">
    <path clip-path="url(#p1e662c21e2)" d="M 189.799344 252 
L 192.140712 252 
L 192.140712 220.491154 
L 189.799344 220.491154 
z
" style="fill:#1f77b4;"/>
   </g>
   <g id="patch_62">
    <path clip-path="url(#p1e662c21e2)" d="M 192.140712 252 
L 194.48208 252 
L 194.48208 219.911947 
L 192.140712 219.911947 
z
" style="fill:#1f77b4;"/>
   </g>
   <g id="patch_63">
    <path clip-path="url(#p1e662c21e2)" d="M 194.48208 252 
L 196.823448 252 
L 196.823448 221.340657 
L 194.48208 221.340657 
z
" style="fill:#1f77b4;"/>
   </g>
   <g id="patch_64">
    <path clip-path="url(#p1e662c21e2)" d="M 196.823448 252 
L 199.164816 252 
L 199.164816 223.425801 
L 196.823448 223.425801 
z
" style="fill:#1f77b4;"/>
   </g>
   <g id="patch_65">
    <path clip-path="url(#p1e662c21e2)" d="M 199.164816 252 
L 201.506184 252 
L 201.506184 223.503029 
L 199.164816 223.503029 
z
" style="fill:#1f77b4;"/>
   </g>
   <g id="patch_66">
    <path clip-path="url(#p1e662c21e2)" d="M 201.506184 252 
L 203.847552 252 
L 203.847552 224.893125 
L 201.506184 224.893125 
z
" style="fill:#1f77b4;"/>
   </g>
   <g id="patch_67">
    <path clip-path="url(#p1e662c21e2)" d="M 203.847552 252 
L 206.18892 252 
L 206.18892 227.866386 
L 203.847552 227.866386 
z
" style="fill:#1f77b4;"/>
   </g>
   <g id="patch_68">
    <path clip-path="url(#p1e662c21e2)" d="M 206.18892 252 
L 208.530288 252 
L 208.530288 226.746586 
L 206.18892 226.746586 
z
" style="fill:#1f77b4;"/>
   </g>
   <g id="patch_69">
    <path clip-path="url(#p1e662c21e2)" d="M 208.530288 252 
L 210.871656 252 
L 210.871656 226.630745 
L 208.530288 226.630745 
z
" style="fill:#1f77b4;"/>
   </g>
   <g id="patch_70">
    <path clip-path="url(#p1e662c21e2)" d="M 210.871656 252 
L 213.213024 252 
L 213.213024 229.758461 
L 210.871656 229.758461 
z
" style="fill:#1f77b4;"/>
   </g>
   <g id="patch_71">
    <path clip-path="url(#p1e662c21e2)" d="M 213.213024 252 
L 215.554392 252 
L 215.554392 228.715889 
L 213.213024 228.715889 
z
" style="fill:#1f77b4;"/>
   </g>
   <g id="patch_72">
    <path clip-path="url(#p1e662c21e2)" d="M 215.554392 252 
L 217.89576 252 
L 217.89576 231.534695 
L 215.554392 231.534695 
z
" style="fill:#1f77b4;"/>
   </g>
   <g id="patch_73">
    <path clip-path="url(#p1e662c21e2)" d="M 217.89576 252 
L 220.237128 252 
L 220.237128 231.959447 
L 217.89576 231.959447 
z
" style="fill:#1f77b4;"/>
   </g>
   <g id="patch_74">
    <path clip-path="url(#p1e662c21e2)" d="M 220.237128 252 
L 222.578496 252 
L 222.578496 233.002019 
L 220.237128 233.002019 
z
" style="fill:#1f77b4;"/>
   </g>
   <g id="patch_75">
    <path clip-path="url(#p1e662c21e2)" d="M 222.578496 252 
L 224.919864 252 
L 224.919864 234.160433 
L 222.578496 234.160433 
z
" style="fill:#1f77b4;"/>
   </g>
   <g id="patch_76">
    <path clip-path="url(#p1e662c21e2)" d="M 224.919864 252 
L 227.261232 252 
L 227.261232 235.66637 
L 224.919864 235.66637 
z
" style="fill:#1f77b4;"/>
   </g>
   <g id="patch_77">
    <path clip-path="url(#p1e662c21e2)" d="M 227.261232 252 
L 229.6026 252 
L 229.6026 236.400032 
L 227.261232 236.400032 
z
" style="fill:#1f77b4;"/>
   </g>
   <g id="patch_78">
    <path clip-path="url(#p1e662c21e2)" d="M 229.6026 252 
L 231.943968 252 
L 231.943968 236.206963 
L 229.6026 236.206963 
z
" style="fill:#1f77b4;"/>
   </g>
   <g id="patch_79">
    <path clip-path="url(#p1e662c21e2)" d="M 231.943968 252 
L 234.285336 252 
L 234.285336 236.708942 
L 231.943968 236.708942 
z
" style="fill:#1f77b4;"/>
   </g>
   <g id="patch_80">
    <path clip-path="url(#p1e662c21e2)" d="M 234.285336 252 
L 236.626704 252 
L 236.626704 237.326763 
L 234.285336 237.326763 
z
" style="fill:#1f77b4;"/>
   </g>
   <g id="patch_81">
    <path clip-path="url(#p1e662c21e2)" d="M 236.626704 252 
L 238.968072 252 
L 238.968072 237.597059 
L 236.626704 237.597059 
z
" style="fill:#1f77b4;"/>
   </g>
   <g id="patch_82">
    <path clip-path="url(#p1e662c21e2)" d="M 238.968072 252 
L 241.30944 252 
L 241.30944 239.102997 
L 238.968072 239.102997 
z
" style="fill:#1f77b4;"/>
   </g>
   <g id="patch_83">
    <path clip-path="url(#p1e662c21e2)" d="M 241.30944 252 
L 243.650808 252 
L 243.650808 240.184183 
L 241.30944 240.184183 
z
" style="fill:#1f77b4;"/>
   </g>
   <g id="patch_84">
    <path clip-path="url(#p1e662c21e2)" d="M 243.650808 252 
L 245.992176 252 
L 245.992176 240.415865 
L 243.650808 240.415865 
z
" style="fill:#1f77b4;"/>
   </g>
   <g id="patch_85">
    <path clip-path="url(#p1e662c21e2)" d="M 245.992176 252 
L 248.333544 252 
L 248.333544 240.145569 
L 245.992176 240.145569 
z
" style="fill:#1f77b4;"/>
   </g>
   <g id="patch_86">
    <path clip-path="url(#p1e662c21e2)" d="M 248.333544 252 
L 250.674912 252 
L 250.674912 242.385168 
L 248.333544 242.385168 
z
" style="fill:#1f77b4;"/>
   </g>
   <g id="patch_87">
    <path clip-path="url(#p1e662c21e2)" d="M 250.674912 252 
L 253.01628 252 
L 253.01628 242.230713 
L 250.674912 242.230713 
z
" style="fill:#1f77b4;"/>
   </g>
   <g id="patch_88">
    <path clip-path="url(#p1e662c21e2)" d="M 253.01628 252 
L 255.357648 252 
L 255.357648 242.616851 
L 253.01628 242.616851 
z
" style="fill:#1f77b4;"/>
   </g>
   <g id="patch_89">
    <path clip-path="url(#p1e662c21e2)" d="M 255.357648 252 
L 257.699016 252 
L 257.699016 242.964375 
L 255.357648 242.964375 
z
" style="fill:#1f77b4;"/>
   </g>
   <g id="patch_90">
    <path clip-path="url(#p1e662c21e2)" d="M 257.699016 252 
L 260.040384 252 
L 260.040384 243.543582 
L 257.699016 243.543582 
z
" style="fill:#1f77b4;"/>
   </g>
   <g id="patch_91">
    <path clip-path="url(#p1e662c21e2)" d="M 260.040384 252 
L 262.381752 252 
L 262.381752 242.385168 
L 260.040384 242.385168 
z
" style="fill:#1f77b4;"/>
   </g>
   <g id="patch_92">
    <path clip-path="url(#p1e662c21e2)" d="M 262.381752 252 
L 264.72312 252 
L 264.72312 243.234671 
L 262.381752 243.234671 
z
" style="fill:#1f77b4;"/>
   </g>
   <g id="patch_93">
    <path clip-path="url(#p1e662c21e2)" d="M 264.72312 252 
L 267.064488 252 
L 267.064488 245.242588 
L 264.72312 245.242588 
z
" style="fill:#1f77b4;"/>
   </g>
   <g id="patch_94">
    <path clip-path="url(#p1e662c21e2)" d="M 267.064488 252 
L 269.405856 252 
L 269.405856 243.852492 
L 267.064488 243.852492 
z
" style="fill:#1f77b4;"/>
   </g>
   <g id="patch_95">
    <path clip-path="url(#p1e662c21e2)" d="M 269.405856 252 
L 271.747224 252 
L 271.747224 244.972292 
L 269.405856 244.972292 
z
" style="fill:#1f77b4;"/>
   </g>
   <g id="patch_96">
    <path clip-path="url(#p1e662c21e2)" d="M 271.747224 252 
L 274.088592 252 
L 274.088592 245.512885 
L 271.747224 245.512885 
z
" style="fill:#1f77b4;"/>
   </g>
   <g id="patch_97">
    <path clip-path="url(#p1e662c21e2)" d="M 274.088592 252 
L 276.42996 252 
L 276.42996 245.821795 
L 274.088592 245.821795 
z
" style="fill:#1f77b4;"/>
   </g>
   <g id="patch_98">
    <path clip-path="url(#p1e662c21e2)" d="M 276.42996 252 
L 278.771328 252 
L 278.771328 245.512885 
L 276.42996 245.512885 
z
" style="fill:#1f77b4;"/>
   </g>
   <g id="patch_99">
    <path clip-path="url(#p1e662c21e2)" d="M 278.771328 252 
L 281.112696 252 
L 281.112696 246.053478 
L 278.771328 246.053478 
z
" style="fill:#1f77b4;"/>
   </g>
   <g id="patch_100">
    <path clip-path="url(#p1e662c21e2)" d="M 281.112696 252 
L 283.454064 252 
L 283.454064 246.59407 
L 281.112696 246.59407 
z
" style="fill:#1f77b4;"/>
   </g>
   <g id="patch_101">
    <path clip-path="url(#p1e662c21e2)" d="M 283.454064 252 
L 285.795432 252 
L 285.795432 246.207933 
L 283.454064 246.207933 
z
" style="fill:#1f77b4;"/>
   </g>
   <g id="patch_102">
    <path clip-path="url(#p1e662c21e2)" d="M 285.795432 252 
L 288.1368 252 
L 288.1368 246.130705 
L 285.795432 246.130705 
z
" style="fill:#1f77b4;"/>
   </g>
   <g id="patch_103">
    <path clip-path="url(#p1e662c21e2)" d="M 288.1368 252 
L 290.478168 252 
L 290.478168 245.937636 
L 288.1368 245.937636 
z
" style="fill:#1f77b4;"/>
   </g>
   <g id="patch_104">
    <path clip-path="url(#p1e662c21e2)" d="M 290.478168 252 
L 292.819536 252 
L 292.819536 246.671298 
L 290.478168 246.671298 
z
" style="fill:#1f77b4;"/>
   </g>
   <g id="patch_105">
    <path clip-path="url(#p1e662c21e2)" d="M 292.819536 252 
L 295.160904 252 
L 295.160904 246.941595 
L 292.819536 246.941595 
z
" style="fill:#1f77b4;"/>
   </g>
   <g id="patch_106">
    <path clip-path="url(#p1e662c21e2)" d="M 295.160904 252 
L 297.502272 252 
L 297.502272 247.752484 
L 295.160904 247.752484 
z
" style="fill:#1f77b4;"/>
   </g>
   <g id="patch_107">
    <path clip-path="url(#p1e662c21e2)" d="M 297.502272 252 
L 299.84364 252 
L 299.84364 247.868325 
L 297.502272 247.868325 
z
" style="fill:#1f77b4;"/>
   </g>
   <g id="patch_108">
    <path clip-path="url(#p1e662c21e2)" d="M 299.84364 252 
L 302.185008 252 
L 302.185008 247.636643 
L 299.84364 247.636643 
z
" style="fill:#1f77b4;"/>
   </g>
   <g id="patch_109">
    <path clip-path="url(#p1e662c21e2)" d="M 302.185008 252 
L 304.526376 252 
L 304.526376 247.250505 
L 302.185008 247.250505 
z
" style="fill:#1f77b4;"/>
   </g>
   <g id="patch_110">
    <path clip-path="url(#p1e662c21e2)" d="M 304.526376 252 
L 306.867744 252 
L 306.867744 247.559415 
L 304.526376 247.559415 
z
" style="fill:#1f77b4;"/>
   </g>
   <g id="patch_111">
    <path clip-path="url(#p1e662c21e2)" d="M 306.867744 252 
L 309.209112 252 
L 309.209112 247.675256 
L 306.867744 247.675256 
z
" style="fill:#1f77b4;"/>
   </g>
   <g id="patch_112">
    <path clip-path="url(#p1e662c21e2)" d="M 309.209112 252 
L 311.55048 252 
L 311.55048 248.486146 
L 309.209112 248.486146 
z
" style="fill:#1f77b4;"/>
   </g>
   <g id="patch_113">
    <path clip-path="url(#p1e662c21e2)" d="M 311.55048 252 
L 313.891848 252 
L 313.891848 248.447532 
L 311.55048 248.447532 
z
" style="fill:#1f77b4;"/>
   </g>
   <g id="patch_114">
    <path clip-path="url(#p1e662c21e2)" d="M 313.891848 252 
L 316.233216 252 
L 316.233216 248.601987 
L 313.891848 248.601987 
z
" style="fill:#1f77b4;"/>
   </g>
   <g id="patch_115">
    <path clip-path="url(#p1e662c21e2)" d="M 316.233216 252 
L 318.574584 252 
L 318.574584 248.52476 
L 316.233216 248.52476 
z
" style="fill:#1f77b4;"/>
   </g>
   <g id="patch_116">
    <path clip-path="url(#p1e662c21e2)" d="M 318.574584 252 
L 320.915952 252 
L 320.915952 248.486146 
L 318.574584 248.486146 
z
" style="fill:#1f77b4;"/>
   </g>
   <g id="patch_117">
    <path clip-path="url(#p1e662c21e2)" d="M 320.915952 252 
L 323.25732 252 
L 323.25732 248.679215 
L 320.915952 248.679215 
z
" style="fill:#1f77b4;"/>
   </g>
   <g id="patch_118">
    <path clip-path="url(#p1e662c21e2)" d="M 323.25732 252 
L 325.598688 252 
L 325.598688 248.756442 
L 323.25732 248.756442 
z
" style="fill:#1f77b4;"/>
   </g>
   <g id="patch_119">
    <path clip-path="url(#p1e662c21e2)" d="M 325.598688 252 
L 327.940056 252 
L 327.940056 249.14258 
L 325.598688 249.14258 
z
" style="fill:#1f77b4;"/>
   </g>
   <g id="patch_120">
    <path clip-path="url(#p1e662c21e2)" d="M 327.940056 252 
L 330.281424 252 
L 330.281424 249.181194 
L 327.940056 249.181194 
z
" style="fill:#1f77b4;"/>
   </g>
   <g id="patch_121">
    <path clip-path="url(#p1e662c21e2)" d="M 330.281424 252 
L 332.622792 252 
L 332.622792 249.374263 
L 330.281424 249.374263 
z
" style="fill:#1f77b4;"/>
   </g>
   <g id="patch_122">
    <path clip-path="url(#p1e662c21e2)" d="M 332.622792 252 
L 334.96416 252 
L 334.96416 248.872284 
L 332.622792 248.872284 
z
" style="fill:#1f77b4;"/>
   </g>
   <g id="patch_123">
    <path clip-path="url(#p1e662c21e2)" d="M 334.96416 252 
L 337.305528 252 
L 337.305528 249.490104 
L 334.96416 249.490104 
z
" style="fill:#1f77b4;"/>
   </g>
   <g id="patch_124">
    <path clip-path="url(#p1e662c21e2)" d="M 337.305528 252 
L 339.646896 252 
L 339.646896 249.876242 
L 337.305528 249.876242 
z
" style="fill:#1f77b4;"/>
   </g>
   <g id="patch_125">
    <path clip-path="url(#p1e662c21e2)" d="M 339.646896 252 
L 341.988264 252 
L 341.988264 250.030697 
L 339.646896 250.030697 
z
" style="fill:#1f77b4;"/>
   </g>
   <g id="patch_126">
    <path clip-path="url(#p1e662c21e2)" d="M 341.988264 252 
L 344.329632 252 
L 344.329632 249.721787 
L 341.988264 249.721787 
z
" style="fill:#1f77b4;"/>
   </g>
   <g id="patch_127">
    <path clip-path="url(#p1e662c21e2)" d="M 344.329632 252 
L 346.671 252 
L 346.671 249.374263 
L 344.329632 249.374263 
z
" style="fill:#1f77b4;"/>
   </g>
   <g id="patch_128">
    <path clip-path="url(#p1e662c21e2)" d="M 346.671 252 
L 349.012368 252 
L 349.012368 250.26238 
L 346.671 250.26238 
z
" style="fill:#1f77b4;"/>
   </g>
   <g id="patch_129">
    <path clip-path="url(#p1e662c21e2)" d="M 349.012368 252 
L 351.353736 252 
L 351.353736 250.185152 
L 349.012368 250.185152 
z
" style="fill:#1f77b4;"/>
   </g>
   <g id="patch_130">
    <path clip-path="url(#p1e662c21e2)" d="M 351.353736 252 
L 353.695104 252 
L 353.695104 250.107925 
L 351.353736 250.107925 
z
" style="fill:#1f77b4;"/>
   </g>
   <g id="patch_131">
    <path clip-path="url(#p1e662c21e2)" d="M 353.695104 252 
L 356.036472 252 
L 356.036472 250.146538 
L 353.695104 250.146538 
z
" style="fill:#1f77b4;"/>
   </g>
   <g id="patch_132">
    <path clip-path="url(#p1e662c21e2)" d="M 356.036472 252 
L 358.37784 252 
L 358.37784 250.223766 
L 356.036472 250.223766 
z
" style="fill:#1f77b4;"/>
   </g>
   <g id="patch_133">
    <path clip-path="url(#p1e662c21e2)" d="M 358.37784 252 
L 360.719208 252 
L 360.719208 250.725745 
L 358.37784 250.725745 
z
" style="fill:#1f77b4;"/>
   </g>
   <g id="patch_134">
    <path clip-path="url(#p1e662c21e2)" d="M 360.719208 252 
L 363.060576 252 
L 363.060576 249.95347 
L 360.719208 249.95347 
z
" style="fill:#1f77b4;"/>
   </g>
   <g id="patch_135">
    <path clip-path="url(#p1e662c21e2)" d="M 363.060576 252 
L 365.401944 252 
L 365.401944 250.532676 
L 363.060576 250.532676 
z
" style="fill:#1f77b4;"/>
   </g>
   <g id="patch_136">
    <path clip-path="url(#p1e662c21e2)" d="M 365.401944 252 
L 367.743312 252 
L 367.743312 250.532676 
L 365.401944 250.532676 
z
" style="fill:#1f77b4;"/>
   </g>
   <g id="patch_137">
    <path clip-path="url(#p1e662c21e2)" d="M 367.743312 252 
L 370.08468 252 
L 370.08468 251.073269 
L 367.743312 251.073269 
z
" style="fill:#1f77b4;"/>
   </g>
   <g id="patch_138">
    <path clip-path="url(#p1e662c21e2)" d="M 370.08468 252 
L 372.426048 252 
L 372.426048 250.609904 
L 370.08468 250.609904 
z
" style="fill:#1f77b4;"/>
   </g>
   <g id="patch_139">
    <path clip-path="url(#p1e662c21e2)" d="M 372.426048 252 
L 374.767416 252 
L 374.767416 251.189111 
L 372.426048 251.189111 
z
" style="fill:#1f77b4;"/>
   </g>
   <g id="patch_140">
    <path clip-path="url(#p1e662c21e2)" d="M 374.767416 252 
L 377.108784 252 
L 377.108784 250.957428 
L 374.767416 250.957428 
z
" style="fill:#1f77b4;"/>
   </g>
   <g id="patch_141">
    <path clip-path="url(#p1e662c21e2)" d="M 377.108784 252 
L 379.450152 252 
L 379.450152 250.378221 
L 377.108784 250.378221 
z
" style="fill:#1f77b4;"/>
   </g>
   <g id="patch_142">
    <path clip-path="url(#p1e662c21e2)" d="M 379.450152 252 
L 381.79152 252 
L 381.79152 251.034655 
L 379.450152 251.034655 
z
" style="fill:#1f77b4;"/>
   </g>
   <g id="patch_143">
    <path clip-path="url(#p1e662c21e2)" d="M 381.79152 252 
L 384.132888 252 
L 384.132888 250.841587 
L 381.79152 250.841587 
z
" style="fill:#1f77b4;"/>
   </g>
   <g id="patch_144">
    <path clip-path="url(#p1e662c21e2)" d="M 384.132888 252 
L 386.474256 252 
L 386.474256 250.8802 
L 384.132888 250.8802 
z
" style="fill:#1f77b4;"/>
   </g>
   <g id="patch_145">
    <path clip-path="url(#p1e662c21e2)" d="M 386.474256 252 
L 388.815624 252 
L 388.815624 251.073269 
L 386.474256 251.073269 
z
" style="fill:#1f77b4;"/>
   </g>
   <g id="patch_146">
    <path clip-path="url(#p1e662c21e2)" d="M 388.815624 252 
L 391.156992 252 
L 391.156992 251.111883 
L 388.815624 251.111883 
z
" style="fill:#1f77b4;"/>
   </g>
   <g id="patch_147">
    <path clip-path="url(#p1e662c21e2)" d="M 391.156992 252 
L 393.49836 252 
L 393.49836 250.802973 
L 391.156992 250.802973 
z
" style="fill:#1f77b4;"/>
   </g>
   <g id="patch_148">
    <path clip-path="url(#p1e662c21e2)" d="M 393.49836 252 
L 395.839728 252 
L 395.839728 251.150497 
L 393.49836 251.150497 
z
" style="fill:#1f77b4;"/>
   </g>
   <g id="patch_149">
    <path clip-path="url(#p1e662c21e2)" d="M 395.839728 252 
L 398.181096 252 
L 398.181096 251.613862 
L 395.839728 251.613862 
z
" style="fill:#1f77b4;"/>
   </g>
   <g id="patch_150">
    <path clip-path="url(#p1e662c21e2)" d="M 398.181096 252 
L 400.522464 252 
L 400.522464 251.150497 
L 398.181096 251.150497 
z
" style="fill:#1f77b4;"/>
   </g>
   <g id="patch_151">
    <path clip-path="url(#p1e662c21e2)" d="M 400.522464 252 
L 402.863832 252 
L 402.863832 251.073269 
L 400.522464 251.073269 
z
" style="fill:#1f77b4;"/>
   </g>
   <g id="patch_152">
    <path clip-path="url(#p1e662c21e2)" d="M 402.863832 252 
L 405.2052 252 
L 405.2052 251.266338 
L 402.863832 251.266338 
z
" style="fill:#1f77b4;"/>
   </g>
   <g id="patch_153">
    <path clip-path="url(#p1e662c21e2)" d="M 405.2052 252 
L 407.546568 252 
L 407.546568 251.111883 
L 405.2052 251.111883 
z
" style="fill:#1f77b4;"/>
   </g>
   <g id="patch_154">
    <path clip-path="url(#p1e662c21e2)" d="M 407.546568 252 
L 409.887936 252 
L 409.887936 251.343566 
L 407.546568 251.343566 
z
" style="fill:#1f77b4;"/>
   </g>
   <g id="patch_155">
    <path clip-path="url(#p1e662c21e2)" d="M 409.887936 252 
L 412.229304 252 
L 412.229304 251.073269 
L 409.887936 251.073269 
z
" style="fill:#1f77b4;"/>
   </g>
   <g id="patch_156">
    <path clip-path="url(#p1e662c21e2)" d="M 412.229304 252 
L 414.570672 252 
L 414.570672 251.266338 
L 412.229304 251.266338 
z
" style="fill:#1f77b4;"/>
   </g>
   <g id="patch_157">
    <path clip-path="url(#p1e662c21e2)" d="M 414.570672 252 
L 416.91204 252 
L 416.91204 251.304952 
L 414.570672 251.304952 
z
" style="fill:#1f77b4;"/>
   </g>
   <g id="patch_158">
    <path clip-path="url(#p1e662c21e2)" d="M 416.91204 252 
L 419.253408 252 
L 419.253408 251.382179 
L 416.91204 251.382179 
z
" style="fill:#1f77b4;"/>
   </g>
   <g id="patch_159">
    <path clip-path="url(#p1e662c21e2)" d="M 419.253408 252 
L 421.594776 252 
L 421.594776 251.304952 
L 419.253408 251.304952 
z
" style="fill:#1f77b4;"/>
   </g>
   <g id="patch_160">
    <path clip-path="url(#p1e662c21e2)" d="M 421.594776 252 
L 423.936144 252 
L 423.936144 251.459407 
L 421.594776 251.459407 
z
" style="fill:#1f77b4;"/>
   </g>
   <g id="patch_161">
    <path clip-path="url(#p1e662c21e2)" d="M 423.936144 252 
L 426.277512 252 
L 426.277512 251.459407 
L 423.936144 251.459407 
z
" style="fill:#1f77b4;"/>
   </g>
   <g id="patch_162">
    <path clip-path="url(#p1e662c21e2)" d="M 426.277512 252 
L 428.61888 252 
L 428.61888 251.382179 
L 426.277512 251.382179 
z
" style="fill:#1f77b4;"/>
   </g>
   <g id="patch_163">
    <path clip-path="url(#p1e662c21e2)" d="M 428.61888 252 
L 430.960248 252 
L 430.960248 251.382179 
L 428.61888 251.382179 
z
" style="fill:#1f77b4;"/>
   </g>
   <g id="patch_164">
    <path clip-path="url(#p1e662c21e2)" d="M 430.960248 252 
L 433.301616 252 
L 433.301616 251.498021 
L 430.960248 251.498021 
z
" style="fill:#1f77b4;"/>
   </g>
   <g id="patch_165">
    <path clip-path="url(#p1e662c21e2)" d="M 433.301616 252 
L 435.642984 252 
L 435.642984 251.498021 
L 433.301616 251.498021 
z
" style="fill:#1f77b4;"/>
   </g>
   <g id="patch_166">
    <path clip-path="url(#p1e662c21e2)" d="M 435.642984 252 
L 437.984352 252 
L 437.984352 251.459407 
L 435.642984 251.459407 
z
" style="fill:#1f77b4;"/>
   </g>
   <g id="patch_167">
    <path clip-path="url(#p1e662c21e2)" d="M 437.984352 252 
L 440.32572 252 
L 440.32572 251.304952 
L 437.984352 251.304952 
z
" style="fill:#1f77b4;"/>
   </g>
   <g id="patch_168">
    <path clip-path="url(#p1e662c21e2)" d="M 440.32572 252 
L 442.667088 252 
L 442.667088 251.613862 
L 440.32572 251.613862 
z
" style="fill:#1f77b4;"/>
   </g>
   <g id="patch_169">
    <path clip-path="url(#p1e662c21e2)" d="M 442.667088 252 
L 445.008456 252 
L 445.008456 251.536635 
L 442.667088 251.536635 
z
" style="fill:#1f77b4;"/>
   </g>
   <g id="patch_170">
    <path clip-path="url(#p1e662c21e2)" d="M 445.008456 252 
L 447.349824 252 
L 447.349824 251.845545 
L 445.008456 251.845545 
z
" style="fill:#1f77b4;"/>
   </g>
   <g id="patch_171">
    <path clip-path="url(#p1e662c21e2)" d="M 447.349824 252 
L 449.691192 252 
L 449.691192 251.613862 
L 447.349824 251.613862 
z
" style="fill:#1f77b4;"/>
   </g>
   <g id="patch_172">
    <path clip-path="url(#p1e662c21e2)" d="M 449.691192 252 
L 452.03256 252 
L 452.03256 251.652476 
L 449.691192 251.652476 
z
" style="fill:#1f77b4;"/>
   </g>
   <g id="patch_173">
    <path clip-path="url(#p1e662c21e2)" d="M 452.03256 252 
L 454.373928 252 
L 454.373928 251.652476 
L 452.03256 251.652476 
z
" style="fill:#1f77b4;"/>
   </g>
   <g id="patch_174">
    <path clip-path="url(#p1e662c21e2)" d="M 454.373928 252 
L 456.715296 252 
L 456.715296 251.729704 
L 454.373928 251.729704 
z
" style="fill:#1f77b4;"/>
   </g>
   <g id="patch_175">
    <path clip-path="url(#p1e662c21e2)" d="M 456.715296 252 
L 459.056664 252 
L 459.056664 251.652476 
L 456.715296 251.652476 
z
" style="fill:#1f77b4;"/>
   </g>
   <g id="patch_176">
    <path clip-path="url(#p1e662c21e2)" d="M 459.056664 252 
L 461.398032 252 
L 461.398032 251.768317 
L 459.056664 251.768317 
z
" style="fill:#1f77b4;"/>
   </g>
   <g id="patch_177">
    <path clip-path="url(#p1e662c21e2)" d="M 461.398032 252 
L 463.7394 252 
L 463.7394 251.768317 
L 461.398032 251.768317 
z
" style="fill:#1f77b4;"/>
   </g>
   <g id="patch_178">
    <path clip-path="url(#p1e662c21e2)" d="M 463.7394 252 
L 466.080768 252 
L 466.080768 251.69109 
L 463.7394 251.69109 
z
" style="fill:#1f77b4;"/>
   </g>
   <g id="patch_179">
    <path clip-path="url(#p1e662c21e2)" d="M 466.080768 252 
L 468.422136 252 
L 468.422136 251.69109 
L 466.080768 251.69109 
z
" style="fill:#1f77b4;"/>
   </g>
   <g id="patch_180">
    <path clip-path="url(#p1e662c21e2)" d="M 468.422136 252 
L 470.763504 252 
L 470.763504 251.768317 
L 468.422136 251.768317 
z
" style="fill:#1f77b4;"/>
   </g>
   <g id="patch_181">
    <path clip-path="url(#p1e662c21e2)" d="M 470.763504 252 
L 473.104872 252 
L 473.104872 251.922772 
L 470.763504 251.922772 
z
" style="fill:#1f77b4;"/>
   </g>
   <g id="patch_182">
    <path clip-path="url(#p1e662c21e2)" d="M 473.104872 252 
L 475.44624 252 
L 475.44624 251.806931 
L 473.104872 251.806931 
z
" style="fill:#1f77b4;"/>
   </g>
   <g id="patch_183">
    <path clip-path="url(#p1e662c21e2)" d="M 475.44624 252 
L 477.787608 252 
L 477.787608 251.768317 
L 475.44624 251.768317 
z
" style="fill:#1f77b4;"/>
   </g>
   <g id="patch_184">
    <path clip-path="url(#p1e662c21e2)" d="M 477.787608 252 
L 480.128976 252 
L 480.128976 251.768317 
L 477.787608 251.768317 
z
" style="fill:#1f77b4;"/>
   </g>
   <g id="patch_185">
    <path clip-path="url(#p1e662c21e2)" d="M 480.128976 252 
L 482.470344 252 
L 482.470344 251.768317 
L 480.128976 251.768317 
z
" style="fill:#1f77b4;"/>
   </g>
   <g id="patch_186">
    <path clip-path="url(#p1e662c21e2)" d="M 482.470344 252 
L 484.811712 252 
L 484.811712 251.884159 
L 482.470344 251.884159 
z
" style="fill:#1f77b4;"/>
   </g>
   <g id="patch_187">
    <path clip-path="url(#p1e662c21e2)" d="M 484.811712 252 
L 487.15308 252 
L 487.15308 251.806931 
L 484.811712 251.806931 
z
" style="fill:#1f77b4;"/>
   </g>
   <g id="patch_188">
    <path clip-path="url(#p1e662c21e2)" d="M 487.15308 252 
L 489.494448 252 
L 489.494448 251.768317 
L 487.15308 251.768317 
z
" style="fill:#1f77b4;"/>
   </g>
   <g id="patch_189">
    <path clip-path="url(#p1e662c21e2)" d="M 489.494448 252 
L 491.835816 252 
L 491.835816 251.768317 
L 489.494448 251.768317 
z
" style="fill:#1f77b4;"/>
   </g>
   <g id="patch_190">
    <path clip-path="url(#p1e662c21e2)" d="M 491.835816 252 
L 494.177184 252 
L 494.177184 251.806931 
L 491.835816 251.806931 
z
" style="fill:#1f77b4;"/>
   </g>
   <g id="patch_191">
    <path clip-path="url(#p1e662c21e2)" d="M 494.177184 252 
L 496.518552 252 
L 496.518552 251.884159 
L 494.177184 251.884159 
z
" style="fill:#1f77b4;"/>
   </g>
   <g id="patch_192">
    <path clip-path="url(#p1e662c21e2)" d="M 496.518552 252 
L 498.85992 252 
L 498.85992 251.806931 
L 496.518552 251.806931 
z
" style="fill:#1f77b4;"/>
   </g>
   <g id="patch_193">
    <path clip-path="url(#p1e662c21e2)" d="M 498.85992 252 
L 501.201288 252 
L 501.201288 251.845545 
L 498.85992 251.845545 
z
" style="fill:#1f77b4;"/>
   </g>
   <g id="patch_194">
    <path clip-path="url(#p1e662c21e2)" d="M 501.201288 252 
L 503.542656 252 
L 503.542656 251.806931 
L 501.201288 251.806931 
z
" style="fill:#1f77b4;"/>
   </g>
   <g id="patch_195">
    <path clip-path="url(#p1e662c21e2)" d="M 503.542656 252 
L 505.884024 252 
L 505.884024 251.922772 
L 503.542656 251.922772 
z
" style="fill:#1f77b4;"/>
   </g>
   <g id="patch_196">
    <path clip-path="url(#p1e662c21e2)" d="M 505.884024 252 
L 508.225392 252 
L 508.225392 251.961386 
L 505.884024 251.961386 
z
" style="fill:#1f77b4;"/>
   </g>
   <g id="patch_197">
    <path clip-path="url(#p1e662c21e2)" d="M 508.225392 252 
L 510.56676 252 
L 510.56676 251.884159 
L 508.225392 251.884159 
z
" style="fill:#1f77b4;"/>
   </g>
   <g id="patch_198">
    <path clip-path="url(#p1e662c21e2)" d="M 510.56676 252 
L 512.908128 252 
L 512.908128 251.845545 
L 510.56676 251.845545 
z
" style="fill:#1f77b4;"/>
   </g>
   <g id="patch_199">
    <path clip-path="url(#p1e662c21e2)" d="M 512.908128 252 
L 515.249496 252 
L 515.249496 251.845545 
L 512.908128 251.845545 
z
" style="fill:#1f77b4;"/>
   </g>
   <g id="patch_200">
    <path clip-path="url(#p1e662c21e2)" d="M 515.249496 252 
L 517.590864 252 
L 517.590864 251.806931 
L 515.249496 251.806931 
z
" style="fill:#1f77b4;"/>
   </g>
   <g id="patch_201">
    <path clip-path="url(#p1e662c21e2)" d="M 517.590864 252 
L 519.932232 252 
L 519.932232 251.922772 
L 517.590864 251.922772 
z
" style="fill:#1f77b4;"/>
   </g>
   <g id="patch_202">
    <path clip-path="url(#p1e662c21e2)" d="M 519.932232 252 
L 522.2736 252 
L 522.2736 251.922772 
L 519.932232 251.922772 
z
" style="fill:#1f77b4;"/>
   </g>
   <g id="patch_203">
    <path clip-path="url(#p1e662c21e2)" d="M 522.2736 252 
L 524.614968 252 
L 524.614968 251.806931 
L 522.2736 251.806931 
z
" style="fill:#1f77b4;"/>
   </g>
   <g id="patch_204">
    <path clip-path="url(#p1e662c21e2)" d="M 524.614968 252 
L 526.956336 252 
L 526.956336 251.806931 
L 524.614968 251.806931 
z
" style="fill:#1f77b4;"/>
   </g>
   <g id="patch_205">
    <path clip-path="url(#p1e662c21e2)" d="M 526.956336 252 
L 529.297704 252 
L 529.297704 251.845545 
L 526.956336 251.845545 
z
" style="fill:#1f77b4;"/>
   </g>
   <g id="patch_206">
    <path clip-path="url(#p1e662c21e2)" d="M 529.297704 252 
L 531.639072 252 
L 531.639072 252 
L 529.297704 252 
z
" style="fill:#1f77b4;"/>
   </g>
   <g id="patch_207">
    <path clip-path="url(#p1e662c21e2)" d="M 531.639072 252 
L 533.98044 252 
L 533.98044 251.922772 
L 531.639072 251.922772 
z
" style="fill:#1f77b4;"/>
   </g>
   <g id="patch_208">
    <path clip-path="url(#p1e662c21e2)" d="M 533.98044 252 
L 536.321808 252 
L 536.321808 251.845545 
L 533.98044 251.845545 
z
" style="fill:#1f77b4;"/>
   </g>
   <g id="patch_209">
    <path clip-path="url(#p1e662c21e2)" d="M 536.321808 252 
L 538.663176 252 
L 538.663176 251.961386 
L 536.321808 251.961386 
z
" style="fill:#1f77b4;"/>
   </g>
   <g id="patch_210">
    <path clip-path="url(#p1e662c21e2)" d="M 538.663176 252 
L 541.004544 252 
L 541.004544 251.845545 
L 538.663176 251.845545 
z
" style="fill:#1f77b4;"/>
   </g>
   <g id="patch_211">
    <path clip-path="url(#p1e662c21e2)" d="M 541.004544 252 
L 543.345912 252 
L 543.345912 251.845545 
L 541.004544 251.845545 
z
" style="fill:#1f77b4;"/>
   </g>
   <g id="patch_212">
    <path clip-path="url(#p1e662c21e2)" d="M 543.345912 252 
L 545.68728 252 
L 545.68728 251.845545 
L 543.345912 251.845545 
z
" style="fill:#1f77b4;"/>
   </g>
   <g id="patch_213">
    <path clip-path="url(#p1e662c21e2)" d="M 545.68728 252 
L 548.028648 252 
L 548.028648 251.922772 
L 545.68728 251.922772 
z
" style="fill:#1f77b4;"/>
   </g>
   <g id="patch_214">
    <path clip-path="url(#p1e662c21e2)" d="M 548.028648 252 
L 550.370016 252 
L 550.370016 251.845545 
L 548.028648 251.845545 
z
" style="fill:#1f77b4;"/>
   </g>
   <g id="patch_215">
    <path clip-path="url(#p1e662c21e2)" d="M 550.370016 252 
L 552.711384 252 
L 552.711384 251.922772 
L 550.370016 251.922772 
z
" style="fill:#1f77b4;"/>
   </g>
   <g id="patch_216">
    <path clip-path="url(#p1e662c21e2)" d="M 552.711384 252 
L 555.052752 252 
L 555.052752 251.961386 
L 552.711384 251.961386 
z
" style="fill:#1f77b4;"/>
   </g>
   <g id="patch_217">
    <path clip-path="url(#p1e662c21e2)" d="M 555.052752 252 
L 557.39412 252 
L 557.39412 252 
L 555.052752 252 
z
" style="fill:#1f77b4;"/>
   </g>
   <g id="patch_218">
    <path clip-path="url(#p1e662c21e2)" d="M 557.39412 252 
L 559.735488 252 
L 559.735488 251.922772 
L 557.39412 251.922772 
z
" style="fill:#1f77b4;"/>
   </g>
   <g id="patch_219">
    <path clip-path="url(#p1e662c21e2)" d="M 559.735488 252 
L 562.076856 252 
L 562.076856 251.845545 
L 559.735488 251.845545 
z
" style="fill:#1f77b4;"/>
   </g>
   <g id="patch_220">
    <path clip-path="url(#p1e662c21e2)" d="M 562.076856 252 
L 564.418224 252 
L 564.418224 251.806931 
L 562.076856 251.806931 
z
" style="fill:#1f77b4;"/>
   </g>
   <g id="patch_221">
    <path clip-path="url(#p1e662c21e2)" d="M 564.418224 252 
L 566.759592 252 
L 566.759592 251.922772 
L 564.418224 251.922772 
z
" style="fill:#1f77b4;"/>
   </g>
   <g id="patch_222">
    <path clip-path="url(#p1e662c21e2)" d="M 566.759592 252 
L 569.10096 252 
L 569.10096 251.922772 
L 566.759592 251.922772 
z
" style="fill:#1f77b4;"/>
   </g>
   <g id="patch_223">
    <path clip-path="url(#p1e662c21e2)" d="M 569.10096 252 
L 571.442328 252 
L 571.442328 252 
L 569.10096 252 
z
" style="fill:#1f77b4;"/>
   </g>
   <g id="patch_224">
    <path clip-path="url(#p1e662c21e2)" d="M 571.442328 252 
L 573.783696 252 
L 573.783696 251.961386 
L 571.442328 251.961386 
z
" style="fill:#1f77b4;"/>
   </g>
   <g id="patch_225">
    <path clip-path="url(#p1e662c21e2)" d="M 573.783696 252 
L 576.125064 252 
L 576.125064 252 
L 573.783696 252 
z
" style="fill:#1f77b4;"/>
   </g>
   <g id="patch_226">
    <path clip-path="url(#p1e662c21e2)" d="M 576.125064 252 
L 578.466432 252 
L 578.466432 251.884159 
L 576.125064 251.884159 
z
" style="fill:#1f77b4;"/>
   </g>
   <g id="patch_227">
    <path clip-path="url(#p1e662c21e2)" d="M 578.466432 252 
L 580.8078 252 
L 580.8078 251.961386 
L 578.466432 251.961386 
z
" style="fill:#1f77b4;"/>
   </g>
   <g id="patch_228">
    <path clip-path="url(#p1e662c21e2)" d="M 580.8078 252 
L 583.149168 252 
L 583.149168 251.961386 
L 580.8078 251.961386 
z
" style="fill:#1f77b4;"/>
   </g>
   <g id="patch_229">
    <path clip-path="url(#p1e662c21e2)" d="M 583.149168 252 
L 585.490536 252 
L 585.490536 251.961386 
L 583.149168 251.961386 
z
" style="fill:#1f77b4;"/>
   </g>
   <g id="patch_230">
    <path clip-path="url(#p1e662c21e2)" d="M 585.490536 252 
L 587.831904 252 
L 587.831904 251.922772 
L 585.490536 251.922772 
z
" style="fill:#1f77b4;"/>
   </g>
   <g id="patch_231">
    <path clip-path="url(#p1e662c21e2)" d="M 587.831904 252 
L 590.173272 252 
L 590.173272 252 
L 587.831904 252 
z
" style="fill:#1f77b4;"/>
   </g>
   <g id="patch_232">
    <path clip-path="url(#p1e662c21e2)" d="M 590.173272 252 
L 592.51464 252 
L 592.51464 252 
L 590.173272 252 
z
" style="fill:#1f77b4;"/>
   </g>
   <g id="patch_233">
    <path clip-path="url(#p1e662c21e2)" d="M 592.51464 252 
L 594.856008 252 
L 594.856008 251.806931 
L 592.51464 251.806931 
z
" style="fill:#1f77b4;"/>
   </g>
   <g id="patch_234">
    <path clip-path="url(#p1e662c21e2)" d="M 594.856008 252 
L 597.197376 252 
L 597.197376 251.961386 
L 594.856008 251.961386 
z
" style="fill:#1f77b4;"/>
   </g>
   <g id="patch_235">
    <path clip-path="url(#p1e662c21e2)" d="M 597.197376 252 
L 599.538744 252 
L 599.538744 251.961386 
L 597.197376 251.961386 
z
" style="fill:#1f77b4;"/>
   </g>
   <g id="patch_236">
    <path clip-path="url(#p1e662c21e2)" d="M 599.538744 252 
L 601.880112 252 
L 601.880112 252 
L 599.538744 252 
z
" style="fill:#1f77b4;"/>
   </g>
   <g id="patch_237">
    <path clip-path="url(#p1e662c21e2)" d="M 601.880112 252 
L 604.22148 252 
L 604.22148 251.961386 
L 601.880112 251.961386 
z
" style="fill:#1f77b4;"/>
   </g>
   <g id="patch_238">
    <path clip-path="url(#p1e662c21e2)" d="M 604.22148 252 
L 606.562848 252 
L 606.562848 252 
L 604.22148 252 
z
" style="fill:#1f77b4;"/>
   </g>
   <g id="patch_239">
    <path clip-path="url(#p1e662c21e2)" d="M 606.562848 252 
L 608.904216 252 
L 608.904216 251.922772 
L 606.562848 251.922772 
z
" style="fill:#1f77b4;"/>
   </g>
   <g id="patch_240">
    <path clip-path="url(#p1e662c21e2)" d="M 608.904216 252 
L 611.245584 252 
L 611.245584 251.922772 
L 608.904216 251.922772 
z
" style="fill:#1f77b4;"/>
   </g>
   <g id="patch_241">
    <path clip-path="url(#p1e662c21e2)" d="M 611.245584 252 
L 613.586952 252 
L 613.586952 252 
L 611.245584 252 
z
" style="fill:#1f77b4;"/>
   </g>
   <g id="patch_242">
    <path clip-path="url(#p1e662c21e2)" d="M 613.586952 252 
L 615.92832 252 
L 615.92832 251.961386 
L 613.586952 251.961386 
z
" style="fill:#1f77b4;"/>
   </g>
   <g id="patch_243">
    <path clip-path="url(#p1e662c21e2)" d="M 615.92832 252 
L 618.269688 252 
L 618.269688 251.961386 
L 615.92832 251.961386 
z
" style="fill:#1f77b4;"/>
   </g>
   <g id="patch_244">
    <path clip-path="url(#p1e662c21e2)" d="M 618.269688 252 
L 620.611056 252 
L 620.611056 251.922772 
L 618.269688 251.922772 
z
" style="fill:#1f77b4;"/>
   </g>
   <g id="patch_245">
    <path clip-path="url(#p1e662c21e2)" d="M 620.611056 252 
L 622.952424 252 
L 622.952424 252 
L 620.611056 252 
z
" style="fill:#1f77b4;"/>
   </g>
   <g id="patch_246">
    <path clip-path="url(#p1e662c21e2)" d="M 622.952424 252 
L 625.293792 252 
L 625.293792 252 
L 622.952424 252 
z
" style="fill:#1f77b4;"/>
   </g>
   <g id="patch_247">
    <path clip-path="url(#p1e662c21e2)" d="M 625.293792 252 
L 627.63516 252 
L 627.63516 251.922772 
L 625.293792 251.922772 
z
" style="fill:#1f77b4;"/>
   </g>
   <g id="patch_248">
    <path clip-path="url(#p1e662c21e2)" d="M 627.63516 252 
L 629.976528 252 
L 629.976528 251.961386 
L 627.63516 251.961386 
z
" style="fill:#1f77b4;"/>
   </g>
   <g id="patch_249">
    <path clip-path="url(#p1e662c21e2)" d="M 629.976528 252 
L 632.317896 252 
L 632.317896 251.961386 
L 629.976528 251.961386 
z
" style="fill:#1f77b4;"/>
   </g>
   <g id="patch_250">
    <path clip-path="url(#p1e662c21e2)" d="M 632.317896 252 
L 634.659264 252 
L 634.659264 252 
L 632.317896 252 
z
" style="fill:#1f77b4;"/>
   </g>
   <g id="patch_251">
    <path clip-path="url(#p1e662c21e2)" d="M 634.659264 252 
L 637.000632 252 
L 637.000632 252 
L 634.659264 252 
z
" style="fill:#1f77b4;"/>
   </g>
   <g id="patch_252">
    <path clip-path="url(#p1e662c21e2)" d="M 637.000632 252 
L 639.342 252 
L 639.342 252 
L 637.000632 252 
z
" style="fill:#1f77b4;"/>
   </g>
   <g id="patch_253">
    <path clip-path="url(#p1e662c21e2)" d="M 639.342 252 
L 641.683368 252 
L 641.683368 252 
L 639.342 252 
z
" style="fill:#1f77b4;"/>
   </g>
   <g id="patch_254">
    <path clip-path="url(#p1e662c21e2)" d="M 641.683368 252 
L 644.024736 252 
L 644.024736 251.961386 
L 641.683368 251.961386 
z
" style="fill:#1f77b4;"/>
   </g>
   <g id="patch_255">
    <path clip-path="url(#p1e662c21e2)" d="M 644.024736 252 
L 646.366104 252 
L 646.366104 252 
L 644.024736 252 
z
" style="fill:#1f77b4;"/>
   </g>
   <g id="patch_256">
    <path clip-path="url(#p1e662c21e2)" d="M 646.366104 252 
L 648.707472 252 
L 648.707472 252 
L 646.366104 252 
z
" style="fill:#1f77b4;"/>
   </g>
   <g id="patch_257">
    <path clip-path="url(#p1e662c21e2)" d="M 648.707472 252 
L 651.04884 252 
L 651.04884 251.961386 
L 648.707472 251.961386 
z
" style="fill:#1f77b4;"/>
   </g>
   <g id="patch_258">
    <path clip-path="url(#p1e662c21e2)" d="M 651.04884 252 
L 653.390208 252 
L 653.390208 252 
L 651.04884 252 
z
" style="fill:#1f77b4;"/>
   </g>
   <g id="patch_259">
    <path clip-path="url(#p1e662c21e2)" d="M 653.390208 252 
L 655.731576 252 
L 655.731576 252 
L 653.390208 252 
z
" style="fill:#1f77b4;"/>
   </g>
   <g id="patch_260">
    <path clip-path="url(#p1e662c21e2)" d="M 655.731576 252 
L 658.072944 252 
L 658.072944 252 
L 655.731576 252 
z
" style="fill:#1f77b4;"/>
   </g>
   <g id="patch_261">
    <path clip-path="url(#p1e662c21e2)" d="M 658.072944 252 
L 660.414312 252 
L 660.414312 252 
L 658.072944 252 
z
" style="fill:#1f77b4;"/>
   </g>
   <g id="patch_262">
    <path clip-path="url(#p1e662c21e2)" d="M 660.414312 252 
L 662.75568 252 
L 662.75568 251.922772 
L 660.414312 251.922772 
z
" style="fill:#1f77b4;"/>
   </g>
   <g id="patch_263">
    <path clip-path="url(#p1e662c21e2)" d="M 662.75568 252 
L 665.097048 252 
L 665.097048 251.922772 
L 662.75568 251.922772 
z
" style="fill:#1f77b4;"/>
   </g>
   <g id="patch_264">
    <path clip-path="url(#p1e662c21e2)" d="M 665.097048 252 
L 667.438416 252 
L 667.438416 252 
L 665.097048 252 
z
" style="fill:#1f77b4;"/>
   </g>
   <g id="patch_265">
    <path clip-path="url(#p1e662c21e2)" d="M 667.438416 252 
L 669.779784 252 
L 669.779784 251.961386 
L 667.438416 251.961386 
z
" style="fill:#1f77b4;"/>
   </g>
   <g id="patch_266">
    <path clip-path="url(#p1e662c21e2)" d="M 669.779784 252 
L 672.121152 252 
L 672.121152 252 
L 669.779784 252 
z
" style="fill:#1f77b4;"/>
   </g>
   <g id="patch_267">
    <path clip-path="url(#p1e662c21e2)" d="M 672.121152 252 
L 674.46252 252 
L 674.46252 252 
L 672.121152 252 
z
" style="fill:#1f77b4;"/>
   </g>
   <g id="patch_268">
    <path clip-path="url(#p1e662c21e2)" d="M 674.46252 252 
L 676.803888 252 
L 676.803888 251.961386 
L 674.46252 251.961386 
z
" style="fill:#1f77b4;"/>
   </g>
   <g id="patch_269">
    <path clip-path="url(#p1e662c21e2)" d="M 676.803888 252 
L 679.145256 252 
L 679.145256 251.961386 
L 676.803888 251.961386 
z
" style="fill:#1f77b4;"/>
   </g>
   <g id="patch_270">
    <path clip-path="url(#p1e662c21e2)" d="M 679.145256 252 
L 681.486624 252 
L 681.486624 251.961386 
L 679.145256 251.961386 
z
" style="fill:#1f77b4;"/>
   </g>
   <g id="patch_271">
    <path clip-path="url(#p1e662c21e2)" d="M 681.486624 252 
L 683.827992 252 
L 683.827992 252 
L 681.486624 252 
z
" style="fill:#1f77b4;"/>
   </g>
   <g id="patch_272">
    <path clip-path="url(#p1e662c21e2)" d="M 683.827992 252 
L 686.16936 252 
L 686.16936 252 
L 683.827992 252 
z
" style="fill:#1f77b4;"/>
   </g>
   <g id="patch_273">
    <path clip-path="url(#p1e662c21e2)" d="M 686.16936 252 
L 688.510728 252 
L 688.510728 252 
L 686.16936 252 
z
" style="fill:#1f77b4;"/>
   </g>
   <g id="patch_274">
    <path clip-path="url(#p1e662c21e2)" d="M 688.510728 252 
L 690.852096 252 
L 690.852096 252 
L 688.510728 252 
z
" style="fill:#1f77b4;"/>
   </g>
   <g id="patch_275">
    <path clip-path="url(#p1e662c21e2)" d="M 690.852096 252 
L 693.193464 252 
L 693.193464 252 
L 690.852096 252 
z
" style="fill:#1f77b4;"/>
   </g>
   <g id="patch_276">
    <path clip-path="url(#p1e662c21e2)" d="M 693.193464 252 
L 695.534832 252 
L 695.534832 251.884159 
L 693.193464 251.884159 
z
" style="fill:#1f77b4;"/>
   </g>
   <g id="patch_277">
    <path clip-path="url(#p1e662c21e2)" d="M 695.534832 252 
L 697.8762 252 
L 697.8762 252 
L 695.534832 252 
z
" style="fill:#1f77b4;"/>
   </g>
   <g id="patch_278">
    <path clip-path="url(#p1e662c21e2)" d="M 697.8762 252 
L 700.217568 252 
L 700.217568 252 
L 697.8762 252 
z
" style="fill:#1f77b4;"/>
   </g>
   <g id="patch_279">
    <path clip-path="url(#p1e662c21e2)" d="M 700.217568 252 
L 702.558936 252 
L 702.558936 252 
L 700.217568 252 
z
" style="fill:#1f77b4;"/>
   </g>
   <g id="patch_280">
    <path clip-path="url(#p1e662c21e2)" d="M 702.558936 252 
L 704.900304 252 
L 704.900304 252 
L 702.558936 252 
z
" style="fill:#1f77b4;"/>
   </g>
   <g id="patch_281">
    <path clip-path="url(#p1e662c21e2)" d="M 704.900304 252 
L 707.241672 252 
L 707.241672 252 
L 704.900304 252 
z
" style="fill:#1f77b4;"/>
   </g>
   <g id="patch_282">
    <path clip-path="url(#p1e662c21e2)" d="M 707.241672 252 
L 709.58304 252 
L 709.58304 252 
L 707.241672 252 
z
" style="fill:#1f77b4;"/>
   </g>
   <g id="patch_283">
    <path clip-path="url(#p1e662c21e2)" d="M 709.58304 252 
L 711.924408 252 
L 711.924408 252 
L 709.58304 252 
z
" style="fill:#1f77b4;"/>
   </g>
   <g id="patch_284">
    <path clip-path="url(#p1e662c21e2)" d="M 711.924408 252 
L 714.265776 252 
L 714.265776 252 
L 711.924408 252 
z
" style="fill:#1f77b4;"/>
   </g>
   <g id="patch_285">
    <path clip-path="url(#p1e662c21e2)" d="M 714.265776 252 
L 716.607144 252 
L 716.607144 252 
L 714.265776 252 
z
" style="fill:#1f77b4;"/>
   </g>
   <g id="patch_286">
    <path clip-path="url(#p1e662c21e2)" d="M 716.607144 252 
L 718.948512 252 
L 718.948512 252 
L 716.607144 252 
z
" style="fill:#1f77b4;"/>
   </g>
   <g id="patch_287">
    <path clip-path="url(#p1e662c21e2)" d="M 718.948512 252 
L 721.28988 252 
L 721.28988 252 
L 718.948512 252 
z
" style="fill:#1f77b4;"/>
   </g>
   <g id="patch_288">
    <path clip-path="url(#p1e662c21e2)" d="M 721.28988 252 
L 723.631248 252 
L 723.631248 251.961386 
L 721.28988 251.961386 
z
" style="fill:#1f77b4;"/>
   </g>
   <g id="patch_289">
    <path clip-path="url(#p1e662c21e2)" d="M 723.631248 252 
L 725.972616 252 
L 725.972616 252 
L 723.631248 252 
z
" style="fill:#1f77b4;"/>
   </g>
   <g id="patch_290">
    <path clip-path="url(#p1e662c21e2)" d="M 725.972616 252 
L 728.313984 252 
L 728.313984 252 
L 725.972616 252 
z
" style="fill:#1f77b4;"/>
   </g>
   <g id="patch_291">
    <path clip-path="url(#p1e662c21e2)" d="M 728.313984 252 
L 730.655352 252 
L 730.655352 252 
L 728.313984 252 
z
" style="fill:#1f77b4;"/>
   </g>
   <g id="patch_292">
    <path clip-path="url(#p1e662c21e2)" d="M 730.655352 252 
L 732.99672 252 
L 732.99672 252 
L 730.655352 252 
z
" style="fill:#1f77b4;"/>
   </g>
   <g id="patch_293">
    <path clip-path="url(#p1e662c21e2)" d="M 732.99672 252 
L 735.338088 252 
L 735.338088 252 
L 732.99672 252 
z
" style="fill:#1f77b4;"/>
   </g>
   <g id="patch_294">
    <path clip-path="url(#p1e662c21e2)" d="M 735.338088 252 
L 737.679456 252 
L 737.679456 252 
L 735.338088 252 
z
" style="fill:#1f77b4;"/>
   </g>
   <g id="patch_295">
    <path clip-path="url(#p1e662c21e2)" d="M 737.679456 252 
L 740.020824 252 
L 740.020824 252 
L 737.679456 252 
z
" style="fill:#1f77b4;"/>
   </g>
   <g id="patch_296">
    <path clip-path="url(#p1e662c21e2)" d="M 740.020824 252 
L 742.362192 252 
L 742.362192 252 
L 740.020824 252 
z
" style="fill:#1f77b4;"/>
   </g>
   <g id="patch_297">
    <path clip-path="url(#p1e662c21e2)" d="M 742.362192 252 
L 744.70356 252 
L 744.70356 252 
L 742.362192 252 
z
" style="fill:#1f77b4;"/>
   </g>
   <g id="patch_298">
    <path clip-path="url(#p1e662c21e2)" d="M 744.70356 252 
L 747.044928 252 
L 747.044928 252 
L 744.70356 252 
z
" style="fill:#1f77b4;"/>
   </g>
   <g id="patch_299">
    <path clip-path="url(#p1e662c21e2)" d="M 747.044928 252 
L 749.386296 252 
L 749.386296 252 
L 747.044928 252 
z
" style="fill:#1f77b4;"/>
   </g>
   <g id="patch_300">
    <path clip-path="url(#p1e662c21e2)" d="M 749.386296 252 
L 751.727664 252 
L 751.727664 252 
L 749.386296 252 
z
" style="fill:#1f77b4;"/>
   </g>
   <g id="patch_301">
    <path clip-path="url(#p1e662c21e2)" d="M 751.727664 252 
L 754.069032 252 
L 754.069032 252 
L 751.727664 252 
z
" style="fill:#1f77b4;"/>
   </g>
   <g id="patch_302">
    <path clip-path="url(#p1e662c21e2)" d="M 754.069032 252 
L 756.4104 252 
L 756.4104 251.961386 
L 754.069032 251.961386 
z
" style="fill:#1f77b4;"/>
   </g>
   <g id="matplotlib.axis_1">
    <g id="xtick_1">
     <g id="line2d_1">
      <defs>
       <path d="M 0 0 
L 0 3.5 
" id="ma984e11508" style="stroke:#000000;stroke-width:0.8;"/>
      </defs>
      <g>
       <use style="stroke:#000000;stroke-width:0.8;" x="54" xlink:href="#ma984e11508" y="252"/>
      </g>
     </g>
     <g id="text_1">
      <!-- 0 -->
      <defs>
       <path d="M 31.78125 66.40625 
Q 24.171875 66.40625 20.328125 58.90625 
Q 16.5 51.421875 16.5 36.375 
Q 16.5 21.390625 20.328125 13.890625 
Q 24.171875 6.390625 31.78125 6.390625 
Q 39.453125 6.390625 43.28125 13.890625 
Q 47.125 21.390625 47.125 36.375 
Q 47.125 51.421875 43.28125 58.90625 
Q 39.453125 66.40625 31.78125 66.40625 
z
M 31.78125 74.21875 
Q 44.046875 74.21875 50.515625 64.515625 
Q 56.984375 54.828125 56.984375 36.375 
Q 56.984375 17.96875 50.515625 8.265625 
Q 44.046875 -1.421875 31.78125 -1.421875 
Q 19.53125 -1.421875 13.0625 8.265625 
Q 6.59375 17.96875 6.59375 36.375 
Q 6.59375 54.828125 13.0625 64.515625 
Q 19.53125 74.21875 31.78125 74.21875 
z
" id="DejaVuSans-30"/>
      </defs>
      <g transform="translate(47.00125 275.716563)scale(0.22 -0.22)">
       <use xlink:href="#DejaVuSans-30"/>
      </g>
     </g>
    </g>
    <g id="xtick_2">
     <g id="line2d_2">
      <g>
       <use style="stroke:#000000;stroke-width:0.8;" x="120.96" xlink:href="#ma984e11508" y="252"/>
      </g>
     </g>
     <g id="text_2">
      <!-- 200 -->
      <defs>
       <path d="M 19.1875 8.296875 
L 53.609375 8.296875 
L 53.609375 0 
L 7.328125 0 
L 7.328125 8.296875 
Q 12.9375 14.109375 22.625 23.890625 
Q 32.328125 33.6875 34.8125 36.53125 
Q 39.546875 41.84375 41.421875 45.53125 
Q 43.3125 49.21875 43.3125 52.78125 
Q 43.3125 58.59375 39.234375 62.25 
Q 35.15625 65.921875 28.609375 65.921875 
Q 23.96875 65.921875 18.8125 64.3125 
Q 13.671875 62.703125 7.8125 59.421875 
L 7.8125 69.390625 
Q 13.765625 71.78125 18.9375 73 
Q 24.125 74.21875 28.421875 74.21875 
Q 39.75 74.21875 46.484375 68.546875 
Q 53.21875 62.890625 53.21875 53.421875 
Q 53.21875 48.921875 51.53125 44.890625 
Q 49.859375 40.875 45.40625 35.40625 
Q 44.1875 33.984375 37.640625 27.21875 
Q 31.109375 20.453125 19.1875 8.296875 
z
" id="DejaVuSans-32"/>
      </defs>
      <g transform="translate(99.96375 275.716563)scale(0.22 -0.22)">
       <use xlink:href="#DejaVuSans-32"/>
       <use x="63.623047" xlink:href="#DejaVuSans-30"/>
       <use x="127.246094" xlink:href="#DejaVuSans-30"/>
      </g>
     </g>
    </g>
    <g id="xtick_3">
     <g id="line2d_3">
      <g>
       <use style="stroke:#000000;stroke-width:0.8;" x="187.92" xlink:href="#ma984e11508" y="252"/>
      </g>
     </g>
     <g id="text_3">
      <!-- 400 -->
      <defs>
       <path d="M 37.796875 64.3125 
L 12.890625 25.390625 
L 37.796875 25.390625 
z
M 35.203125 72.90625 
L 47.609375 72.90625 
L 47.609375 25.390625 
L 58.015625 25.390625 
L 58.015625 17.1875 
L 47.609375 17.1875 
L 47.609375 0 
L 37.796875 0 
L 37.796875 17.1875 
L 4.890625 17.1875 
L 4.890625 26.703125 
z
" id="DejaVuSans-34"/>
      </defs>
      <g transform="translate(166.92375 275.716563)scale(0.22 -0.22)">
       <use xlink:href="#DejaVuSans-34"/>
       <use x="63.623047" xlink:href="#DejaVuSans-30"/>
       <use x="127.246094" xlink:href="#DejaVuSans-30"/>
      </g>
     </g>
    </g>
    <g id="xtick_4">
     <g id="line2d_4">
      <g>
       <use style="stroke:#000000;stroke-width:0.8;" x="254.88" xlink:href="#ma984e11508" y="252"/>
      </g>
     </g>
     <g id="text_4">
      <!-- 600 -->
      <defs>
       <path d="M 33.015625 40.375 
Q 26.375 40.375 22.484375 35.828125 
Q 18.609375 31.296875 18.609375 23.390625 
Q 18.609375 15.53125 22.484375 10.953125 
Q 26.375 6.390625 33.015625 6.390625 
Q 39.65625 6.390625 43.53125 10.953125 
Q 47.40625 15.53125 47.40625 23.390625 
Q 47.40625 31.296875 43.53125 35.828125 
Q 39.65625 40.375 33.015625 40.375 
z
M 52.59375 71.296875 
L 52.59375 62.3125 
Q 48.875 64.0625 45.09375 64.984375 
Q 41.3125 65.921875 37.59375 65.921875 
Q 27.828125 65.921875 22.671875 59.328125 
Q 17.53125 52.734375 16.796875 39.40625 
Q 19.671875 43.65625 24.015625 45.921875 
Q 28.375 48.1875 33.59375 48.1875 
Q 44.578125 48.1875 50.953125 41.515625 
Q 57.328125 34.859375 57.328125 23.390625 
Q 57.328125 12.15625 50.6875 5.359375 
Q 44.046875 -1.421875 33.015625 -1.421875 
Q 20.359375 -1.421875 13.671875 8.265625 
Q 6.984375 17.96875 6.984375 36.375 
Q 6.984375 53.65625 15.1875 63.9375 
Q 23.390625 74.21875 37.203125 74.21875 
Q 40.921875 74.21875 44.703125 73.484375 
Q 48.484375 72.75 52.59375 71.296875 
z
" id="DejaVuSans-36"/>
      </defs>
      <g transform="translate(233.88375 275.716563)scale(0.22 -0.22)">
       <use xlink:href="#DejaVuSans-36"/>
       <use x="63.623047" xlink:href="#DejaVuSans-30"/>
       <use x="127.246094" xlink:href="#DejaVuSans-30"/>
      </g>
     </g>
    </g>
    <g id="xtick_5">
     <g id="line2d_5">
      <g>
       <use style="stroke:#000000;stroke-width:0.8;" x="321.84" xlink:href="#ma984e11508" y="252"/>
      </g>
     </g>
     <g id="text_5">
      <!-- 800 -->
      <defs>
       <path d="M 31.78125 34.625 
Q 24.75 34.625 20.71875 30.859375 
Q 16.703125 27.09375 16.703125 20.515625 
Q 16.703125 13.921875 20.71875 10.15625 
Q 24.75 6.390625 31.78125 6.390625 
Q 38.8125 6.390625 42.859375 10.171875 
Q 46.921875 13.96875 46.921875 20.515625 
Q 46.921875 27.09375 42.890625 30.859375 
Q 38.875 34.625 31.78125 34.625 
z
M 21.921875 38.8125 
Q 15.578125 40.375 12.03125 44.71875 
Q 8.5 49.078125 8.5 55.328125 
Q 8.5 64.0625 14.71875 69.140625 
Q 20.953125 74.21875 31.78125 74.21875 
Q 42.671875 74.21875 48.875 69.140625 
Q 55.078125 64.0625 55.078125 55.328125 
Q 55.078125 49.078125 51.53125 44.71875 
Q 48 40.375 41.703125 38.8125 
Q 48.828125 37.15625 52.796875 32.3125 
Q 56.78125 27.484375 56.78125 20.515625 
Q 56.78125 9.90625 50.3125 4.234375 
Q 43.84375 -1.421875 31.78125 -1.421875 
Q 19.734375 -1.421875 13.25 4.234375 
Q 6.78125 9.90625 6.78125 20.515625 
Q 6.78125 27.484375 10.78125 32.3125 
Q 14.796875 37.15625 21.921875 38.8125 
z
M 18.3125 54.390625 
Q 18.3125 48.734375 21.84375 45.5625 
Q 25.390625 42.390625 31.78125 42.390625 
Q 38.140625 42.390625 41.71875 45.5625 
Q 45.3125 48.734375 45.3125 54.390625 
Q 45.3125 60.0625 41.71875 63.234375 
Q 38.140625 66.40625 31.78125 66.40625 
Q 25.390625 66.40625 21.84375 63.234375 
Q 18.3125 60.0625 18.3125 54.390625 
z
" id="DejaVuSans-38"/>
      </defs>
      <g transform="translate(300.84375 275.716563)scale(0.22 -0.22)">
       <use xlink:href="#DejaVuSans-38"/>
       <use x="63.623047" xlink:href="#DejaVuSans-30"/>
       <use x="127.246094" xlink:href="#DejaVuSans-30"/>
      </g>
     </g>
    </g>
    <g id="xtick_6">
     <g id="line2d_6">
      <g>
       <use style="stroke:#000000;stroke-width:0.8;" x="388.8" xlink:href="#ma984e11508" y="252"/>
      </g>
     </g>
     <g id="text_6">
      <!-- 1000 -->
      <defs>
       <path d="M 12.40625 8.296875 
L 28.515625 8.296875 
L 28.515625 63.921875 
L 10.984375 60.40625 
L 10.984375 69.390625 
L 28.421875 72.90625 
L 38.28125 72.90625 
L 38.28125 8.296875 
L 54.390625 8.296875 
L 54.390625 0 
L 12.40625 0 
z
" id="DejaVuSans-31"/>
      </defs>
      <g transform="translate(360.805 275.716563)scale(0.22 -0.22)">
       <use xlink:href="#DejaVuSans-31"/>
       <use x="63.623047" xlink:href="#DejaVuSans-30"/>
       <use x="127.246094" xlink:href="#DejaVuSans-30"/>
       <use x="190.869141" xlink:href="#DejaVuSans-30"/>
      </g>
     </g>
    </g>
    <g id="text_7">
     <!-- Cell Count -->
     <defs>
      <path d="M 64.40625 67.28125 
L 64.40625 56.890625 
Q 59.421875 61.53125 53.78125 63.8125 
Q 48.140625 66.109375 41.796875 66.109375 
Q 29.296875 66.109375 22.65625 58.46875 
Q 16.015625 50.828125 16.015625 36.375 
Q 16.015625 21.96875 22.65625 14.328125 
Q 29.296875 6.6875 41.796875 6.6875 
Q 48.140625 6.6875 53.78125 8.984375 
Q 59.421875 11.28125 64.40625 15.921875 
L 64.40625 5.609375 
Q 59.234375 2.09375 53.4375 0.328125 
Q 47.65625 -1.421875 41.21875 -1.421875 
Q 24.65625 -1.421875 15.125 8.703125 
Q 5.609375 18.84375 5.609375 36.375 
Q 5.609375 53.953125 15.125 64.078125 
Q 24.65625 74.21875 41.21875 74.21875 
Q 47.75 74.21875 53.53125 72.484375 
Q 59.328125 70.75 64.40625 67.28125 
z
" id="DejaVuSans-43"/>
      <path d="M 56.203125 29.59375 
L 56.203125 25.203125 
L 14.890625 25.203125 
Q 15.484375 15.921875 20.484375 11.0625 
Q 25.484375 6.203125 34.421875 6.203125 
Q 39.59375 6.203125 44.453125 7.46875 
Q 49.3125 8.734375 54.109375 11.28125 
L 54.109375 2.78125 
Q 49.265625 0.734375 44.1875 -0.34375 
Q 39.109375 -1.421875 33.890625 -1.421875 
Q 20.796875 -1.421875 13.15625 6.1875 
Q 5.515625 13.8125 5.515625 26.8125 
Q 5.515625 40.234375 12.765625 48.109375 
Q 20.015625 56 32.328125 56 
Q 43.359375 56 49.78125 48.890625 
Q 56.203125 41.796875 56.203125 29.59375 
z
M 47.21875 32.234375 
Q 47.125 39.59375 43.09375 43.984375 
Q 39.0625 48.390625 32.421875 48.390625 
Q 24.90625 48.390625 20.390625 44.140625 
Q 15.875 39.890625 15.1875 32.171875 
z
" id="DejaVuSans-65"/>
      <path d="M 9.421875 75.984375 
L 18.40625 75.984375 
L 18.40625 0 
L 9.421875 0 
z
" id="DejaVuSans-6c"/>
      <path id="DejaVuSans-20"/>
      <path d="M 30.609375 48.390625 
Q 23.390625 48.390625 19.1875 42.75 
Q 14.984375 37.109375 14.984375 27.296875 
Q 14.984375 17.484375 19.15625 11.84375 
Q 23.34375 6.203125 30.609375 6.203125 
Q 37.796875 6.203125 41.984375 11.859375 
Q 46.1875 17.53125 46.1875 27.296875 
Q 46.1875 37.015625 41.984375 42.703125 
Q 37.796875 48.390625 30.609375 48.390625 
z
M 30.609375 56 
Q 42.328125 56 49.015625 48.375 
Q 55.71875 40.765625 55.71875 27.296875 
Q 55.71875 13.875 49.015625 6.21875 
Q 42.328125 -1.421875 30.609375 -1.421875 
Q 18.84375 -1.421875 12.171875 6.21875 
Q 5.515625 13.875 5.515625 27.296875 
Q 5.515625 40.765625 12.171875 48.375 
Q 18.84375 56 30.609375 56 
z
" id="DejaVuSans-6f"/>
      <path d="M 8.5 21.578125 
L 8.5 54.6875 
L 17.484375 54.6875 
L 17.484375 21.921875 
Q 17.484375 14.15625 20.5 10.265625 
Q 23.53125 6.390625 29.59375 6.390625 
Q 36.859375 6.390625 41.078125 11.03125 
Q 45.3125 15.671875 45.3125 23.6875 
L 45.3125 54.6875 
L 54.296875 54.6875 
L 54.296875 0 
L 45.3125 0 
L 45.3125 8.40625 
Q 42.046875 3.421875 37.71875 1 
Q 33.40625 -1.421875 27.6875 -1.421875 
Q 18.265625 -1.421875 13.375 4.4375 
Q 8.5 10.296875 8.5 21.578125 
z
M 31.109375 56 
z
" id="DejaVuSans-75"/>
      <path d="M 54.890625 33.015625 
L 54.890625 0 
L 45.90625 0 
L 45.90625 32.71875 
Q 45.90625 40.484375 42.875 44.328125 
Q 39.84375 48.1875 33.796875 48.1875 
Q 26.515625 48.1875 22.3125 43.546875 
Q 18.109375 38.921875 18.109375 30.90625 
L 18.109375 0 
L 9.078125 0 
L 9.078125 54.6875 
L 18.109375 54.6875 
L 18.109375 46.1875 
Q 21.34375 51.125 25.703125 53.5625 
Q 30.078125 56 35.796875 56 
Q 45.21875 56 50.046875 50.171875 
Q 54.890625 44.34375 54.890625 33.015625 
z
" id="DejaVuSans-6e"/>
      <path d="M 18.3125 70.21875 
L 18.3125 54.6875 
L 36.8125 54.6875 
L 36.8125 47.703125 
L 18.3125 47.703125 
L 18.3125 18.015625 
Q 18.3125 11.328125 20.140625 9.421875 
Q 21.96875 7.515625 27.59375 7.515625 
L 36.8125 7.515625 
L 36.8125 0 
L 27.59375 0 
Q 17.1875 0 13.234375 3.875 
Q 9.28125 7.765625 9.28125 18.015625 
L 9.28125 47.703125 
L 2.6875 47.703125 
L 2.6875 54.6875 
L 9.28125 54.6875 
L 9.28125 70.21875 
z
" id="DejaVuSans-74"/>
     </defs>
     <g transform="translate(164.676094 301.008438)scale(0.22 -0.22)">
      <use xlink:href="#DejaVuSans-43"/>
      <use x="69.824219" xlink:href="#DejaVuSans-65"/>
      <use x="131.347656" xlink:href="#DejaVuSans-6c"/>
      <use x="159.130859" xlink:href="#DejaVuSans-6c"/>
      <use x="186.914062" xlink:href="#DejaVuSans-20"/>
      <use x="218.701172" xlink:href="#DejaVuSans-43"/>
      <use x="288.525391" xlink:href="#DejaVuSans-6f"/>
      <use x="349.707031" xlink:href="#DejaVuSans-75"/>
      <use x="413.085938" xlink:href="#DejaVuSans-6e"/>
      <use x="476.464844" xlink:href="#DejaVuSans-74"/>
     </g>
    </g>
   </g>
   <g id="matplotlib.axis_2">
    <g id="ytick_1">
     <g id="line2d_7">
      <defs>
       <path d="M 0 0 
L -3.5 0 
" id="mea8572707c" style="stroke:#000000;stroke-width:0.8;"/>
      </defs>
      <g>
       <use style="stroke:#000000;stroke-width:0.8;" x="54" xlink:href="#mea8572707c" y="252"/>
      </g>
     </g>
     <g id="text_8">
      <!-- 0 -->
      <g transform="translate(33.0025 260.358281)scale(0.22 -0.22)">
       <use xlink:href="#DejaVuSans-30"/>
      </g>
     </g>
    </g>
    <g id="ytick_2">
     <g id="line2d_8">
      <g>
       <use style="stroke:#000000;stroke-width:0.8;" x="54" xlink:href="#mea8572707c" y="174.772435"/>
      </g>
     </g>
     <g id="text_9">
      <!-- 2000 -->
      <g transform="translate(-8.99 183.130717)scale(0.22 -0.22)">
       <use xlink:href="#DejaVuSans-32"/>
       <use x="63.623047" xlink:href="#DejaVuSans-30"/>
       <use x="127.246094" xlink:href="#DejaVuSans-30"/>
       <use x="190.869141" xlink:href="#DejaVuSans-30"/>
      </g>
     </g>
    </g>
    <g id="ytick_3">
     <g id="line2d_9">
      <g>
       <use style="stroke:#000000;stroke-width:0.8;" x="54" xlink:href="#mea8572707c" y="97.544871"/>
      </g>
     </g>
     <g id="text_10">
      <!-- 4000 -->
      <g transform="translate(-8.99 105.903152)scale(0.22 -0.22)">
       <use xlink:href="#DejaVuSans-34"/>
       <use x="63.623047" xlink:href="#DejaVuSans-30"/>
       <use x="127.246094" xlink:href="#DejaVuSans-30"/>
       <use x="190.869141" xlink:href="#DejaVuSans-30"/>
      </g>
     </g>
    </g>
    <g id="text_11">
     <!-- Umi Count -->
     <defs>
      <path d="M 8.6875 72.90625 
L 18.609375 72.90625 
L 18.609375 28.609375 
Q 18.609375 16.890625 22.84375 11.734375 
Q 27.09375 6.59375 36.625 6.59375 
Q 46.09375 6.59375 50.34375 11.734375 
Q 54.59375 16.890625 54.59375 28.609375 
L 54.59375 72.90625 
L 64.5 72.90625 
L 64.5 27.390625 
Q 64.5 13.140625 57.4375 5.859375 
Q 50.390625 -1.421875 36.625 -1.421875 
Q 22.796875 -1.421875 15.734375 5.859375 
Q 8.6875 13.140625 8.6875 27.390625 
z
" id="DejaVuSans-55"/>
      <path d="M 52 44.1875 
Q 55.375 50.25 60.0625 53.125 
Q 64.75 56 71.09375 56 
Q 79.640625 56 84.28125 50.015625 
Q 88.921875 44.046875 88.921875 33.015625 
L 88.921875 0 
L 79.890625 0 
L 79.890625 32.71875 
Q 79.890625 40.578125 77.09375 44.375 
Q 74.3125 48.1875 68.609375 48.1875 
Q 61.625 48.1875 57.5625 43.546875 
Q 53.515625 38.921875 53.515625 30.90625 
L 53.515625 0 
L 44.484375 0 
L 44.484375 32.71875 
Q 44.484375 40.625 41.703125 44.40625 
Q 38.921875 48.1875 33.109375 48.1875 
Q 26.21875 48.1875 22.15625 43.53125 
Q 18.109375 38.875 18.109375 30.90625 
L 18.109375 0 
L 9.078125 0 
L 9.078125 54.6875 
L 18.109375 54.6875 
L 18.109375 46.1875 
Q 21.1875 51.21875 25.484375 53.609375 
Q 29.78125 56 35.6875 56 
Q 41.65625 56 45.828125 52.96875 
Q 50 49.953125 52 44.1875 
z
" id="DejaVuSans-6d"/>
      <path d="M 9.421875 54.6875 
L 18.40625 54.6875 
L 18.40625 0 
L 9.421875 0 
z
M 9.421875 75.984375 
L 18.40625 75.984375 
L 18.40625 64.59375 
L 9.421875 64.59375 
z
" id="DejaVuSans-69"/>
     </defs>
     <g transform="translate(-17.565313 201.26375)rotate(-90)scale(0.22 -0.22)">
      <use xlink:href="#DejaVuSans-55"/>
      <use x="73.193359" xlink:href="#DejaVuSans-6d"/>
      <use x="170.605469" xlink:href="#DejaVuSans-69"/>
      <use x="198.388672" xlink:href="#DejaVuSans-20"/>
      <use x="230.175781" xlink:href="#DejaVuSans-43"/>
      <use x="300" xlink:href="#DejaVuSans-6f"/>
      <use x="361.181641" xlink:href="#DejaVuSans-75"/>
      <use x="424.560547" xlink:href="#DejaVuSans-6e"/>
      <use x="487.939453" xlink:href="#DejaVuSans-74"/>
     </g>
    </g>
   </g>
   <g id="patch_303">
    <path d="M 54 252 
L 54 34.56 
" style="fill:none;stroke:#000000;stroke-linecap:square;stroke-linejoin:miter;stroke-width:0.8;"/>
   </g>
   <g id="patch_304">
    <path d="M 388.8 252 
L 388.8 34.56 
" style="fill:none;stroke:#000000;stroke-linecap:square;stroke-linejoin:miter;stroke-width:0.8;"/>
   </g>
   <g id="patch_305">
    <path d="M 54 252 
L 388.8 252 
" style="fill:none;stroke:#000000;stroke-linecap:square;stroke-linejoin:miter;stroke-width:0.8;"/>
   </g>
   <g id="patch_306">
    <path d="M 54 34.56 
L 388.8 34.56 
" style="fill:none;stroke:#000000;stroke-linecap:square;stroke-linejoin:miter;stroke-width:0.8;"/>
   </g>
  </g>
 </g>
 <defs>
  <clipPath id="p1e662c21e2">
   <rect height="217.44" width="334.8" x="54" y="34.56"/>
  </clipPath>
 </defs>
</svg>
