<?xml version="1.0" encoding="utf-8" standalone="no"?>
<!DOCTYPE svg PUBLIC "-//W3C//DTD SVG 1.1//EN"
  "http://www.w3.org/Graphics/SVG/1.1/DTD/svg11.dtd">
<!-- Created with matplotlib (http://matplotlib.org/) -->
<svg height="360pt" version="1.1" viewBox="0 0 720 360" width="720pt" xmlns="http://www.w3.org/2000/svg" xmlns:xlink="http://www.w3.org/1999/xlink">
 <defs>
  <style type="text/css">
*{stroke-linecap:butt;stroke-linejoin:round;}
  </style>
 </defs>
 <g id="figure_1">
  <g id="patch_1">
   <path d="M 0 360 
L 720 360 
L 720 0 
L 0 0 
z
" style="fill:#ffffff;"/>
  </g>
  <g id="axes_1">
   <g id="patch_2">
    <path d="M 90 315 
L 648 315 
L 648 43.2 
L 90 43.2 
z
" style="fill:#ffffff;"/>
   </g>
   <g id="matplotlib.axis_1">
    <g id="xtick_1">
     <g id="line2d_1">
      <defs>
       <path d="M 0 0 
L 0 3.5 
" id="me2e690ec11" style="stroke:#000000;stroke-width:0.8;"/>
      </defs>
      <g>
       <use style="stroke:#000000;stroke-width:0.8;" x="115.363636" xlink:href="#me2e690ec11" y="315"/>
      </g>
     </g>
     <g id="text_1">
      <!-- 0 -->
      <defs>
       <path d="M 31.78125 66.40625 
Q 24.171875 66.40625 20.328125 58.90625 
Q 16.5 51.421875 16.5 36.375 
Q 16.5 21.390625 20.328125 13.890625 
Q 24.171875 6.390625 31.78125 6.390625 
Q 39.453125 6.390625 43.28125 13.890625 
Q 47.125 21.390625 47.125 36.375 
Q 47.125 51.421875 43.28125 58.90625 
Q 39.453125 66.40625 31.78125 66.40625 
z
M 31.78125 74.21875 
Q 44.046875 74.21875 50.515625 64.515625 
Q 56.984375 54.828125 56.984375 36.375 
Q 56.984375 17.96875 50.515625 8.265625 
Q 44.046875 -1.421875 31.78125 -1.421875 
Q 19.53125 -1.421875 13.0625 8.265625 
Q 6.59375 17.96875 6.59375 36.375 
Q 6.59375 54.828125 13.0625 64.515625 
Q 19.53125 74.21875 31.78125 74.21875 
z
" id="DejaVuSans-30"/>
      </defs>
      <g transform="translate(112.182386 329.598437)scale(0.1 -0.1)">
       <use xlink:href="#DejaVuSans-30"/>
      </g>
     </g>
    </g>
    <g id="xtick_2">
     <g id="line2d_2">
      <g>
       <use style="stroke:#000000;stroke-width:0.8;" x="184.527601" xlink:href="#me2e690ec11" y="315"/>
      </g>
     </g>
     <g id="text_2">
      <!-- 20000 -->
      <defs>
       <path d="M 19.1875 8.296875 
L 53.609375 8.296875 
L 53.609375 0 
L 7.328125 0 
L 7.328125 8.296875 
Q 12.9375 14.109375 22.625 23.890625 
Q 32.328125 33.6875 34.8125 36.53125 
Q 39.546875 41.84375 41.421875 45.53125 
Q 43.3125 49.21875 43.3125 52.78125 
Q 43.3125 58.59375 39.234375 62.25 
Q 35.15625 65.921875 28.609375 65.921875 
Q 23.96875 65.921875 18.8125 64.3125 
Q 13.671875 62.703125 7.8125 59.421875 
L 7.8125 69.390625 
Q 13.765625 71.78125 18.9375 73 
Q 24.125 74.21875 28.421875 74.21875 
Q 39.75 74.21875 46.484375 68.546875 
Q 53.21875 62.890625 53.21875 53.421875 
Q 53.21875 48.921875 51.53125 44.890625 
Q 49.859375 40.875 45.40625 35.40625 
Q 44.1875 33.984375 37.640625 27.21875 
Q 31.109375 20.453125 19.1875 8.296875 
z
" id="DejaVuSans-32"/>
      </defs>
      <g transform="translate(168.621351 329.598437)scale(0.1 -0.1)">
       <use xlink:href="#DejaVuSans-32"/>
       <use x="63.623047" xlink:href="#DejaVuSans-30"/>
       <use x="127.246094" xlink:href="#DejaVuSans-30"/>
       <use x="190.869141" xlink:href="#DejaVuSans-30"/>
       <use x="254.492188" xlink:href="#DejaVuSans-30"/>
      </g>
     </g>
    </g>
    <g id="xtick_3">
     <g id="line2d_3">
      <g>
       <use style="stroke:#000000;stroke-width:0.8;" x="253.691567" xlink:href="#me2e690ec11" y="315"/>
      </g>
     </g>
     <g id="text_3">
      <!-- 40000 -->
      <defs>
       <path d="M 37.796875 64.3125 
L 12.890625 25.390625 
L 37.796875 25.390625 
z
M 35.203125 72.90625 
L 47.609375 72.90625 
L 47.609375 25.390625 
L 58.015625 25.390625 
L 58.015625 17.1875 
L 47.609375 17.1875 
L 47.609375 0 
L 37.796875 0 
L 37.796875 17.1875 
L 4.890625 17.1875 
L 4.890625 26.703125 
z
" id="DejaVuSans-34"/>
      </defs>
      <g transform="translate(237.785317 329.598437)scale(0.1 -0.1)">
       <use xlink:href="#DejaVuSans-34"/>
       <use x="63.623047" xlink:href="#DejaVuSans-30"/>
       <use x="127.246094" xlink:href="#DejaVuSans-30"/>
       <use x="190.869141" xlink:href="#DejaVuSans-30"/>
       <use x="254.492188" xlink:href="#DejaVuSans-30"/>
      </g>
     </g>
    </g>
    <g id="xtick_4">
     <g id="line2d_4">
      <g>
       <use style="stroke:#000000;stroke-width:0.8;" x="322.855532" xlink:href="#me2e690ec11" y="315"/>
      </g>
     </g>
     <g id="text_4">
      <!-- 60000 -->
      <defs>
       <path d="M 33.015625 40.375 
Q 26.375 40.375 22.484375 35.828125 
Q 18.609375 31.296875 18.609375 23.390625 
Q 18.609375 15.53125 22.484375 10.953125 
Q 26.375 6.390625 33.015625 6.390625 
Q 39.65625 6.390625 43.53125 10.953125 
Q 47.40625 15.53125 47.40625 23.390625 
Q 47.40625 31.296875 43.53125 35.828125 
Q 39.65625 40.375 33.015625 40.375 
z
M 52.59375 71.296875 
L 52.59375 62.3125 
Q 48.875 64.0625 45.09375 64.984375 
Q 41.3125 65.921875 37.59375 65.921875 
Q 27.828125 65.921875 22.671875 59.328125 
Q 17.53125 52.734375 16.796875 39.40625 
Q 19.671875 43.65625 24.015625 45.921875 
Q 28.375 48.1875 33.59375 48.1875 
Q 44.578125 48.1875 50.953125 41.515625 
Q 57.328125 34.859375 57.328125 23.390625 
Q 57.328125 12.15625 50.6875 5.359375 
Q 44.046875 -1.421875 33.015625 -1.421875 
Q 20.359375 -1.421875 13.671875 8.265625 
Q 6.984375 17.96875 6.984375 36.375 
Q 6.984375 53.65625 15.1875 63.9375 
Q 23.390625 74.21875 37.203125 74.21875 
Q 40.921875 74.21875 44.703125 73.484375 
Q 48.484375 72.75 52.59375 71.296875 
z
" id="DejaVuSans-36"/>
      </defs>
      <g transform="translate(306.949282 329.598437)scale(0.1 -0.1)">
       <use xlink:href="#DejaVuSans-36"/>
       <use x="63.623047" xlink:href="#DejaVuSans-30"/>
       <use x="127.246094" xlink:href="#DejaVuSans-30"/>
       <use x="190.869141" xlink:href="#DejaVuSans-30"/>
       <use x="254.492188" xlink:href="#DejaVuSans-30"/>
      </g>
     </g>
    </g>
    <g id="xtick_5">
     <g id="line2d_5">
      <g>
       <use style="stroke:#000000;stroke-width:0.8;" x="392.019497" xlink:href="#me2e690ec11" y="315"/>
      </g>
     </g>
     <g id="text_5">
      <!-- 80000 -->
      <defs>
       <path d="M 31.78125 34.625 
Q 24.75 34.625 20.71875 30.859375 
Q 16.703125 27.09375 16.703125 20.515625 
Q 16.703125 13.921875 20.71875 10.15625 
Q 24.75 6.390625 31.78125 6.390625 
Q 38.8125 6.390625 42.859375 10.171875 
Q 46.921875 13.96875 46.921875 20.515625 
Q 46.921875 27.09375 42.890625 30.859375 
Q 38.875 34.625 31.78125 34.625 
z
M 21.921875 38.8125 
Q 15.578125 40.375 12.03125 44.71875 
Q 8.5 49.078125 8.5 55.328125 
Q 8.5 64.0625 14.71875 69.140625 
Q 20.953125 74.21875 31.78125 74.21875 
Q 42.671875 74.21875 48.875 69.140625 
Q 55.078125 64.0625 55.078125 55.328125 
Q 55.078125 49.078125 51.53125 44.71875 
Q 48 40.375 41.703125 38.8125 
Q 48.828125 37.15625 52.796875 32.3125 
Q 56.78125 27.484375 56.78125 20.515625 
Q 56.78125 9.90625 50.3125 4.234375 
Q 43.84375 -1.421875 31.78125 -1.421875 
Q 19.734375 -1.421875 13.25 4.234375 
Q 6.78125 9.90625 6.78125 20.515625 
Q 6.78125 27.484375 10.78125 32.3125 
Q 14.796875 37.15625 21.921875 38.8125 
z
M 18.3125 54.390625 
Q 18.3125 48.734375 21.84375 45.5625 
Q 25.390625 42.390625 31.78125 42.390625 
Q 38.140625 42.390625 41.71875 45.5625 
Q 45.3125 48.734375 45.3125 54.390625 
Q 45.3125 60.0625 41.71875 63.234375 
Q 38.140625 66.40625 31.78125 66.40625 
Q 25.390625 66.40625 21.84375 63.234375 
Q 18.3125 60.0625 18.3125 54.390625 
z
" id="DejaVuSans-38"/>
      </defs>
      <g transform="translate(376.113247 329.598437)scale(0.1 -0.1)">
       <use xlink:href="#DejaVuSans-38"/>
       <use x="63.623047" xlink:href="#DejaVuSans-30"/>
       <use x="127.246094" xlink:href="#DejaVuSans-30"/>
       <use x="190.869141" xlink:href="#DejaVuSans-30"/>
       <use x="254.492188" xlink:href="#DejaVuSans-30"/>
      </g>
     </g>
    </g>
    <g id="xtick_6">
     <g id="line2d_6">
      <g>
       <use style="stroke:#000000;stroke-width:0.8;" x="461.183462" xlink:href="#me2e690ec11" y="315"/>
      </g>
     </g>
     <g id="text_6">
      <!-- 100000 -->
      <defs>
       <path d="M 12.40625 8.296875 
L 28.515625 8.296875 
L 28.515625 63.921875 
L 10.984375 60.40625 
L 10.984375 69.390625 
L 28.421875 72.90625 
L 38.28125 72.90625 
L 38.28125 8.296875 
L 54.390625 8.296875 
L 54.390625 0 
L 12.40625 0 
z
" id="DejaVuSans-31"/>
      </defs>
      <g transform="translate(442.095962 329.598437)scale(0.1 -0.1)">
       <use xlink:href="#DejaVuSans-31"/>
       <use x="63.623047" xlink:href="#DejaVuSans-30"/>
       <use x="127.246094" xlink:href="#DejaVuSans-30"/>
       <use x="190.869141" xlink:href="#DejaVuSans-30"/>
       <use x="254.492188" xlink:href="#DejaVuSans-30"/>
       <use x="318.115234" xlink:href="#DejaVuSans-30"/>
      </g>
     </g>
    </g>
    <g id="xtick_7">
     <g id="line2d_7">
      <g>
       <use style="stroke:#000000;stroke-width:0.8;" x="530.347427" xlink:href="#me2e690ec11" y="315"/>
      </g>
     </g>
     <g id="text_7">
      <!-- 120000 -->
      <g transform="translate(511.259927 329.598437)scale(0.1 -0.1)">
       <use xlink:href="#DejaVuSans-31"/>
       <use x="63.623047" xlink:href="#DejaVuSans-32"/>
       <use x="127.246094" xlink:href="#DejaVuSans-30"/>
       <use x="190.869141" xlink:href="#DejaVuSans-30"/>
       <use x="254.492188" xlink:href="#DejaVuSans-30"/>
       <use x="318.115234" xlink:href="#DejaVuSans-30"/>
      </g>
     </g>
    </g>
    <g id="xtick_8">
     <g id="line2d_8">
      <g>
       <use style="stroke:#000000;stroke-width:0.8;" x="599.511392" xlink:href="#me2e690ec11" y="315"/>
      </g>
     </g>
     <g id="text_8">
      <!-- 140000 -->
      <g transform="translate(580.423892 329.598437)scale(0.1 -0.1)">
       <use xlink:href="#DejaVuSans-31"/>
       <use x="63.623047" xlink:href="#DejaVuSans-34"/>
       <use x="127.246094" xlink:href="#DejaVuSans-30"/>
       <use x="190.869141" xlink:href="#DejaVuSans-30"/>
       <use x="254.492188" xlink:href="#DejaVuSans-30"/>
       <use x="318.115234" xlink:href="#DejaVuSans-30"/>
      </g>
     </g>
    </g>
   </g>
   <g id="matplotlib.axis_2">
    <g id="ytick_1">
     <g id="line2d_9">
      <defs>
       <path d="M 0 0 
L -3.5 0 
" id="m9b11a2566b" style="stroke:#000000;stroke-width:0.8;"/>
      </defs>
      <g>
       <use style="stroke:#000000;stroke-width:0.8;" x="90" xlink:href="#m9b11a2566b" y="302.645455"/>
      </g>
     </g>
     <g id="text_9">
      <!-- $\mathdefault{10^{0}}$ -->
      <g transform="translate(65.4 306.444673)scale(0.1 -0.1)">
       <use transform="translate(0 0.765625)" xlink:href="#DejaVuSans-31"/>
       <use transform="translate(63.623047 0.765625)" xlink:href="#DejaVuSans-30"/>
       <use transform="translate(128.203125 39.046875)scale(0.7)" xlink:href="#DejaVuSans-30"/>
      </g>
     </g>
    </g>
    <g id="ytick_2">
     <g id="line2d_10">
      <g>
       <use style="stroke:#000000;stroke-width:0.8;" x="90" xlink:href="#m9b11a2566b" y="228.260934"/>
      </g>
     </g>
     <g id="text_10">
      <!-- $\mathdefault{10^{1}}$ -->
      <g transform="translate(65.4 232.060153)scale(0.1 -0.1)">
       <use transform="translate(0 0.684375)" xlink:href="#DejaVuSans-31"/>
       <use transform="translate(63.623047 0.684375)" xlink:href="#DejaVuSans-30"/>
       <use transform="translate(128.203125 38.965625)scale(0.7)" xlink:href="#DejaVuSans-31"/>
      </g>
     </g>
    </g>
    <g id="ytick_3">
     <g id="line2d_11">
      <g>
       <use style="stroke:#000000;stroke-width:0.8;" x="90" xlink:href="#m9b11a2566b" y="153.876413"/>
      </g>
     </g>
     <g id="text_11">
      <!-- $\mathdefault{10^{2}}$ -->
      <g transform="translate(65.4 157.675632)scale(0.1 -0.1)">
       <use transform="translate(0 0.765625)" xlink:href="#DejaVuSans-31"/>
       <use transform="translate(63.623047 0.765625)" xlink:href="#DejaVuSans-30"/>
       <use transform="translate(128.203125 39.046875)scale(0.7)" xlink:href="#DejaVuSans-32"/>
      </g>
     </g>
    </g>
    <g id="ytick_4">
     <g id="line2d_12">
      <g>
       <use style="stroke:#000000;stroke-width:0.8;" x="90" xlink:href="#m9b11a2566b" y="79.491892"/>
      </g>
     </g>
     <g id="text_12">
      <!-- $\mathdefault{10^{3}}$ -->
      <defs>
       <path d="M 40.578125 39.3125 
Q 47.65625 37.796875 51.625 33 
Q 55.609375 28.21875 55.609375 21.1875 
Q 55.609375 10.40625 48.1875 4.484375 
Q 40.765625 -1.421875 27.09375 -1.421875 
Q 22.515625 -1.421875 17.65625 -0.515625 
Q 12.796875 0.390625 7.625 2.203125 
L 7.625 11.71875 
Q 11.71875 9.328125 16.59375 8.109375 
Q 21.484375 6.890625 26.8125 6.890625 
Q 36.078125 6.890625 40.9375 10.546875 
Q 45.796875 14.203125 45.796875 21.1875 
Q 45.796875 27.640625 41.28125 31.265625 
Q 36.765625 34.90625 28.71875 34.90625 
L 20.21875 34.90625 
L 20.21875 43.015625 
L 29.109375 43.015625 
Q 36.375 43.015625 40.234375 45.921875 
Q 44.09375 48.828125 44.09375 54.296875 
Q 44.09375 59.90625 40.109375 62.90625 
Q 36.140625 65.921875 28.71875 65.921875 
Q 24.65625 65.921875 20.015625 65.03125 
Q 15.375 64.15625 9.8125 62.3125 
L 9.8125 71.09375 
Q 15.4375 72.65625 20.34375 73.4375 
Q 25.25 74.21875 29.59375 74.21875 
Q 40.828125 74.21875 47.359375 69.109375 
Q 53.90625 64.015625 53.90625 55.328125 
Q 53.90625 49.265625 50.4375 45.09375 
Q 46.96875 40.921875 40.578125 39.3125 
z
" id="DejaVuSans-33"/>
      </defs>
      <g transform="translate(65.4 83.291111)scale(0.1 -0.1)">
       <use transform="translate(0 0.765625)" xlink:href="#DejaVuSans-31"/>
       <use transform="translate(63.623047 0.765625)" xlink:href="#DejaVuSans-30"/>
       <use transform="translate(128.203125 39.046875)scale(0.7)" xlink:href="#DejaVuSans-33"/>
      </g>
     </g>
    </g>
    <g id="ytick_5">
     <g id="line2d_13">
      <defs>
       <path d="M 0 0 
L -2 0 
" id="m41508790c6" style="stroke:#000000;stroke-width:0.6;"/>
      </defs>
      <g>
       <use style="stroke:#000000;stroke-width:0.6;" x="90" xlink:href="#m41508790c6" y="314.167763"/>
      </g>
     </g>
    </g>
    <g id="ytick_6">
     <g id="line2d_14">
      <g>
       <use style="stroke:#000000;stroke-width:0.6;" x="90" xlink:href="#m41508790c6" y="309.854059"/>
      </g>
     </g>
    </g>
    <g id="ytick_7">
     <g id="line2d_15">
      <g>
       <use style="stroke:#000000;stroke-width:0.6;" x="90" xlink:href="#m41508790c6" y="306.049104"/>
      </g>
     </g>
    </g>
    <g id="ytick_8">
     <g id="line2d_16">
      <g>
       <use style="stroke:#000000;stroke-width:0.6;" x="90" xlink:href="#m41508790c6" y="280.253483"/>
      </g>
     </g>
    </g>
    <g id="ytick_9">
     <g id="line2d_17">
      <g>
       <use style="stroke:#000000;stroke-width:0.6;" x="90" xlink:href="#m41508790c6" y="267.155019"/>
      </g>
     </g>
    </g>
    <g id="ytick_10">
     <g id="line2d_18">
      <g>
       <use style="stroke:#000000;stroke-width:0.6;" x="90" xlink:href="#m41508790c6" y="257.861511"/>
      </g>
     </g>
    </g>
    <g id="ytick_11">
     <g id="line2d_19">
      <g>
       <use style="stroke:#000000;stroke-width:0.6;" x="90" xlink:href="#m41508790c6" y="250.652906"/>
      </g>
     </g>
    </g>
    <g id="ytick_12">
     <g id="line2d_20">
      <g>
       <use style="stroke:#000000;stroke-width:0.6;" x="90" xlink:href="#m41508790c6" y="244.763047"/>
      </g>
     </g>
    </g>
    <g id="ytick_13">
     <g id="line2d_21">
      <g>
       <use style="stroke:#000000;stroke-width:0.6;" x="90" xlink:href="#m41508790c6" y="239.783242"/>
      </g>
     </g>
    </g>
    <g id="ytick_14">
     <g id="line2d_22">
      <g>
       <use style="stroke:#000000;stroke-width:0.6;" x="90" xlink:href="#m41508790c6" y="235.469539"/>
      </g>
     </g>
    </g>
    <g id="ytick_15">
     <g id="line2d_23">
      <g>
       <use style="stroke:#000000;stroke-width:0.6;" x="90" xlink:href="#m41508790c6" y="231.664583"/>
      </g>
     </g>
    </g>
    <g id="ytick_16">
     <g id="line2d_24">
      <g>
       <use style="stroke:#000000;stroke-width:0.6;" x="90" xlink:href="#m41508790c6" y="205.868962"/>
      </g>
     </g>
    </g>
    <g id="ytick_17">
     <g id="line2d_25">
      <g>
       <use style="stroke:#000000;stroke-width:0.6;" x="90" xlink:href="#m41508790c6" y="192.770498"/>
      </g>
     </g>
    </g>
    <g id="ytick_18">
     <g id="line2d_26">
      <g>
       <use style="stroke:#000000;stroke-width:0.6;" x="90" xlink:href="#m41508790c6" y="183.47699"/>
      </g>
     </g>
    </g>
    <g id="ytick_19">
     <g id="line2d_27">
      <g>
       <use style="stroke:#000000;stroke-width:0.6;" x="90" xlink:href="#m41508790c6" y="176.268385"/>
      </g>
     </g>
    </g>
    <g id="ytick_20">
     <g id="line2d_28">
      <g>
       <use style="stroke:#000000;stroke-width:0.6;" x="90" xlink:href="#m41508790c6" y="170.378526"/>
      </g>
     </g>
    </g>
    <g id="ytick_21">
     <g id="line2d_29">
      <g>
       <use style="stroke:#000000;stroke-width:0.6;" x="90" xlink:href="#m41508790c6" y="165.398721"/>
      </g>
     </g>
    </g>
    <g id="ytick_22">
     <g id="line2d_30">
      <g>
       <use style="stroke:#000000;stroke-width:0.6;" x="90" xlink:href="#m41508790c6" y="161.085018"/>
      </g>
     </g>
    </g>
    <g id="ytick_23">
     <g id="line2d_31">
      <g>
       <use style="stroke:#000000;stroke-width:0.6;" x="90" xlink:href="#m41508790c6" y="157.280062"/>
      </g>
     </g>
    </g>
    <g id="ytick_24">
     <g id="line2d_32">
      <g>
       <use style="stroke:#000000;stroke-width:0.6;" x="90" xlink:href="#m41508790c6" y="131.484441"/>
      </g>
     </g>
    </g>
    <g id="ytick_25">
     <g id="line2d_33">
      <g>
       <use style="stroke:#000000;stroke-width:0.6;" x="90" xlink:href="#m41508790c6" y="118.385977"/>
      </g>
     </g>
    </g>
    <g id="ytick_26">
     <g id="line2d_34">
      <g>
       <use style="stroke:#000000;stroke-width:0.6;" x="90" xlink:href="#m41508790c6" y="109.092469"/>
      </g>
     </g>
    </g>
    <g id="ytick_27">
     <g id="line2d_35">
      <g>
       <use style="stroke:#000000;stroke-width:0.6;" x="90" xlink:href="#m41508790c6" y="101.883864"/>
      </g>
     </g>
    </g>
    <g id="ytick_28">
     <g id="line2d_36">
      <g>
       <use style="stroke:#000000;stroke-width:0.6;" x="90" xlink:href="#m41508790c6" y="95.994005"/>
      </g>
     </g>
    </g>
    <g id="ytick_29">
     <g id="line2d_37">
      <g>
       <use style="stroke:#000000;stroke-width:0.6;" x="90" xlink:href="#m41508790c6" y="91.0142"/>
      </g>
     </g>
    </g>
    <g id="ytick_30">
     <g id="line2d_38">
      <g>
       <use style="stroke:#000000;stroke-width:0.6;" x="90" xlink:href="#m41508790c6" y="86.700497"/>
      </g>
     </g>
    </g>
    <g id="ytick_31">
     <g id="line2d_39">
      <g>
       <use style="stroke:#000000;stroke-width:0.6;" x="90" xlink:href="#m41508790c6" y="82.895541"/>
      </g>
     </g>
    </g>
    <g id="ytick_32">
     <g id="line2d_40">
      <g>
       <use style="stroke:#000000;stroke-width:0.6;" x="90" xlink:href="#m41508790c6" y="57.09992"/>
      </g>
     </g>
    </g>
    <g id="ytick_33">
     <g id="line2d_41">
      <g>
       <use style="stroke:#000000;stroke-width:0.6;" x="90" xlink:href="#m41508790c6" y="44.001456"/>
      </g>
     </g>
    </g>
    <g id="text_13">
     <!-- nUMI -->
     <defs>
      <path d="M 54.890625 33.015625 
L 54.890625 0 
L 45.90625 0 
L 45.90625 32.71875 
Q 45.90625 40.484375 42.875 44.328125 
Q 39.84375 48.1875 33.796875 48.1875 
Q 26.515625 48.1875 22.3125 43.546875 
Q 18.109375 38.921875 18.109375 30.90625 
L 18.109375 0 
L 9.078125 0 
L 9.078125 54.6875 
L 18.109375 54.6875 
L 18.109375 46.1875 
Q 21.34375 51.125 25.703125 53.5625 
Q 30.078125 56 35.796875 56 
Q 45.21875 56 50.046875 50.171875 
Q 54.890625 44.34375 54.890625 33.015625 
z
" id="DejaVuSans-6e"/>
      <path d="M 8.6875 72.90625 
L 18.609375 72.90625 
L 18.609375 28.609375 
Q 18.609375 16.890625 22.84375 11.734375 
Q 27.09375 6.59375 36.625 6.59375 
Q 46.09375 6.59375 50.34375 11.734375 
Q 54.59375 16.890625 54.59375 28.609375 
L 54.59375 72.90625 
L 64.5 72.90625 
L 64.5 27.390625 
Q 64.5 13.140625 57.4375 5.859375 
Q 50.390625 -1.421875 36.625 -1.421875 
Q 22.796875 -1.421875 15.734375 5.859375 
Q 8.6875 13.140625 8.6875 27.390625 
z
" id="DejaVuSans-55"/>
      <path d="M 9.8125 72.90625 
L 24.515625 72.90625 
L 43.109375 23.296875 
L 61.8125 72.90625 
L 76.515625 72.90625 
L 76.515625 0 
L 66.890625 0 
L 66.890625 64.015625 
L 48.09375 14.015625 
L 38.1875 14.015625 
L 19.390625 64.015625 
L 19.390625 0 
L 9.8125 0 
z
" id="DejaVuSans-4d"/>
      <path d="M 9.8125 72.90625 
L 19.671875 72.90625 
L 19.671875 0 
L 9.8125 0 
z
" id="DejaVuSans-49"/>
     </defs>
     <g transform="translate(59.320313 191.717187)rotate(-90)scale(0.1 -0.1)">
      <use xlink:href="#DejaVuSans-6e"/>
      <use x="63.378906" xlink:href="#DejaVuSans-55"/>
      <use x="136.572266" xlink:href="#DejaVuSans-4d"/>
      <use x="222.851562" xlink:href="#DejaVuSans-49"/>
     </g>
    </g>
   </g>
   <g id="line2d_42">
    <path clip-path="url(#pf3e8fa93ea)" d="M 115.363636 55.554545 
L 115.495048 64.796768 
L 115.692165 68.484075 
L 115.785537 69.844972 
L 116.010319 72.231641 
L 116.020694 72.335016 
L 116.169397 73.521372 
L 116.515216 75.344177 
L 116.532507 75.401051 
L 116.677752 76.00436 
L 116.695043 76.091474 
L 116.888702 76.796975 
L 116.905993 76.856468 
L 117.044321 77.336399 
L 117.206856 77.792904 
L 117.23798 77.884984 
L 117.397057 78.318197 
L 117.421264 78.411789 
L 117.601091 79.042762 
L 117.646047 79.13848 
L 117.801666 79.556566 
L 117.839706 79.653821 
L 117.984951 79.980135 
L 118.029907 80.078675 
L 118.17861 80.442584 
L 118.240857 80.542547 
L 118.379185 80.810638 
L 118.406851 80.911749 
L 118.555553 81.285218 
L 118.610885 81.387828 
L 118.756129 81.732232 
L 118.825293 81.836273 
L 118.963621 82.115366 
L 119.046618 82.22065 
L 119.174571 82.396891 
L 119.222986 82.503098 
L 119.361314 82.788038 
L 119.440852 82.895541 
L 119.572264 83.111628 
L 119.662177 83.220215 
L 119.793588 83.438492 
L 119.88696 83.548185 
L 120.018371 83.768697 
L 120.094452 83.879519 
L 120.218947 84.027877 
L 120.305402 84.102312 
L 120.433355 84.289153 
L 120.505977 84.364193 
L 120.637389 84.590366 
L 120.706553 84.66611 
L 120.834506 84.85625 
L 120.90367 84.932621 
L 121.028165 85.085906 
L 121.104245 85.162822 
L 121.225282 85.278541 
L 121.322112 85.355918 
L 121.450065 85.550174 
L 121.560728 85.628205 
L 121.685223 85.784835 
L 121.778594 85.863435 
L 121.903089 86.021212 
L 122.013752 86.100391 
L 122.138247 86.259332 
L 122.217785 86.339097 
L 122.338822 86.459115 
L 122.428735 86.539376 
L 122.553231 86.700497 
L 122.684642 86.78136 
L 122.809137 86.943696 
L 122.950923 87.025171 
L 123.07196 87.14777 
L 123.16879 87.229762 
L 123.289827 87.353141 
L 123.365907 87.435657 
L 123.486944 87.559826 
L 123.614897 87.642872 
L 123.735934 87.767842 
L 123.832764 87.851425 
L 123.953801 87.977207 
L 124.057547 88.061334 
L 124.178584 88.187937 
L 124.309995 88.272615 
L 124.431032 88.40005 
L 124.583193 88.485287 
L 124.70423 88.613566 
L 124.842558 88.699369 
L 124.963595 88.828502 
L 125.150337 88.914878 
L 125.267916 89.001487 
L 125.388953 89.088327 
L 125.506532 89.175402 
L 125.592987 89.262713 
L 125.710566 89.35026 
L 125.848893 89.438044 
L 125.96993 89.57017 
L 126.108258 89.658556 
L 126.229295 89.791589 
L 126.367623 89.880583 
L 126.485202 89.969822 
L 126.599322 90.059309 
L 126.720359 90.194006 
L 126.93131 90.284117 
L 127.048888 90.374481 
L 127.190674 90.465097 
L 127.308253 90.555969 
L 127.463872 90.647096 
L 127.581451 90.738482 
L 127.761277 90.830127 
L 127.878856 90.922032 
L 128.072515 91.0142 
L 128.190094 91.106632 
L 128.387211 91.199328 
L 128.50479 91.292292 
L 128.670783 91.385524 
L 128.788362 91.479025 
L 128.992396 91.572798 
L 129.109974 91.666844 
L 129.282884 91.761165 
L 129.403921 91.903164 
L 129.601039 91.998178 
L 129.718617 92.093473 
L 129.919193 92.189049 
L 130.036772 92.284909 
L 130.233889 92.381054 
L 130.351468 92.477487 
L 130.531294 92.574208 
L 130.648873 92.671219 
L 130.890947 92.768523 
L 131.008525 92.86612 
L 131.202184 92.964014 
L 131.319763 93.062205 
L 131.513422 93.160695 
L 131.631001 93.259486 
L 131.848867 93.358581 
L 131.966446 93.45798 
L 132.20852 93.557687 
L 132.326099 93.657702 
L 132.561256 93.758027 
L 132.675377 93.808307 
L 132.882869 93.909102 
L 132.996989 93.959618 
L 133.207939 94.060887 
L 133.325518 94.162474 
L 133.543385 94.264382 
L 133.660963 94.366612 
L 133.941077 94.469167 
L 134.058656 94.572049 
L 134.383727 94.675259 
L 134.497847 94.726988 
L 134.719172 94.830696 
L 134.833293 94.882674 
L 135.103032 94.986883 
L 135.220611 95.09143 
L 135.559514 95.196316 
L 135.673635 95.248886 
L 135.894959 95.354285 
L 136.00908 95.407114 
L 136.216572 95.513032 
L 136.330692 95.566121 
L 136.579683 95.672562 
L 136.697261 95.779355 
L 137.02579 95.886502 
L 137.139911 95.940209 
L 137.406192 96.047891 
L 137.523771 96.155934 
L 137.866132 96.26434 
L 137.983711 96.37311 
L 138.381404 96.482248 
L 138.495524 96.536955 
L 138.741057 96.646649 
L 138.858635 96.756717 
L 139.228663 96.867161 
L 139.346241 96.977983 
L 139.602148 97.033538 
L 139.716268 97.089187 
L 139.937593 97.144933 
L 140.051714 97.200776 
L 140.248831 97.256715 
L 140.362952 97.312751 
L 140.51857 97.368884 
L 140.632691 97.425116 
L 140.781394 97.481445 
L 140.895514 97.537872 
L 141.068424 97.594399 
L 141.182545 97.651024 
L 141.365829 97.707749 
L 141.47995 97.764573 
L 141.701274 97.821498 
L 141.815395 97.878523 
L 142.009054 97.93565 
L 142.123174 97.992877 
L 142.292626 98.050206 
L 142.406747 98.107636 
L 142.621155 98.165169 
L 142.735276 98.222805 
L 142.925476 98.280544 
L 143.039597 98.338386 
L 143.219423 98.396332 
L 143.333544 98.454382 
L 143.57216 98.512536 
L 143.68628 98.570795 
L 143.914521 98.62916 
L 144.028642 98.68763 
L 144.28109 98.746206 
L 144.395211 98.804889 
L 144.637285 98.863679 
L 144.751405 98.922575 
L 145.031519 98.981579 
L 145.14564 99.040691 
L 145.377339 99.099912 
L 145.49146 99.159241 
L 145.785406 99.21868 
L 145.899527 99.278228 
L 146.120852 99.337886 
L 146.234972 99.397654 
L 146.518544 99.457533 
L 146.632665 99.517524 
L 146.909321 99.577626 
L 147.023441 99.637839 
L 147.331221 99.698166 
L 147.445342 99.758605 
L 147.687415 99.819158 
L 147.801536 99.879824 
L 148.140439 99.940604 
L 148.25456 100.001499 
L 148.527758 100.062509 
L 148.641878 100.123635 
L 148.915076 100.184876 
L 149.029196 100.246234 
L 149.302394 100.307708 
L 149.416515 100.3693 
L 149.731211 100.431009 
L 149.845331 100.492837 
L 150.094321 100.554782 
L 150.208442 100.616847 
L 150.523138 100.679032 
L 150.637259 100.741336 
L 150.868958 100.803761 
L 150.983078 100.866306 
L 151.252818 100.928973 
L 151.366938 100.991762 
L 151.705842 101.054673 
L 151.819962 101.117707 
L 152.162324 101.180864 
L 152.276445 101.244144 
L 152.563475 101.307549 
L 152.677596 101.371079 
L 152.988833 101.434734 
L 153.102954 101.498514 
L 153.51448 101.562421 
L 153.6286 101.626454 
L 153.970962 101.690615 
L 154.085082 101.754903 
L 154.4724 101.819319 
L 154.586521 101.883864 
L 155.022254 101.948538 
L 155.136374 102.013342 
L 155.461445 102.078277 
L 155.575566 102.143342 
L 155.883345 102.208538 
L 155.997466 102.273866 
L 156.415908 102.339327 
L 156.530028 102.40492 
L 156.996885 102.470647 
L 157.111006 102.536508 
L 157.474117 102.602504 
L 157.588237 102.668634 
L 158.065468 102.734901 
L 158.179589 102.801303 
L 158.601489 102.867842 
L 158.71561 102.934519 
L 159.089095 103.001333 
L 159.203216 103.068286 
L 159.590534 103.135378 
L 159.704654 103.20261 
L 160.178428 103.269982 
L 160.292548 103.337494 
L 160.797445 103.405148 
L 160.911566 103.472944 
L 161.437212 103.540883 
L 161.551332 103.608965 
L 162.049313 103.67719 
L 162.163433 103.74556 
L 162.623374 103.814075 
L 162.737494 103.882736 
L 163.166311 103.951543 
L 163.280431 104.020496 
L 163.764579 104.089598 
L 163.8787 104.158847 
L 164.390513 104.228245 
L 164.504634 104.297792 
L 165.075236 104.36749 
L 165.189357 104.437338 
L 165.763418 104.507338 
L 165.877538 104.577489 
L 166.413559 104.647793 
L 166.52768 104.718251 
L 167.039493 104.788863 
L 167.153613 104.859629 
L 167.700009 104.930551 
L 167.814129 105.001628 
L 168.284444 105.072863 
L 168.398565 105.144254 
L 168.951877 105.215804 
L 169.065997 105.287513 
L 169.574352 105.359381 
L 169.688473 105.43141 
L 170.176079 105.503599 
L 170.290199 105.575951 
L 170.933424 105.648464 
L 171.047545 105.721141 
L 171.607773 105.793982 
L 171.721893 105.866987 
L 172.289038 105.940157 
L 172.403158 106.013494 
L 172.977219 106.086997 
L 173.09134 106.160669 
L 173.703441 106.234508 
L 173.817561 106.308517 
L 174.526492 106.382696 
L 174.640613 106.457045 
L 175.180092 106.531566 
L 175.294212 106.606259 
L 175.868273 106.681125 
L 175.982394 106.756165 
L 176.632535 106.83138 
L 176.746655 106.906771 
L 177.400255 106.982338 
L 177.514375 107.058082 
L 178.174891 107.134004 
L 178.289012 107.210104 
L 178.949528 107.286385 
L 179.063648 107.362846 
L 179.703415 107.439488 
L 179.817535 107.516313 
L 180.609463 107.593321 
L 180.723583 107.670513 
L 181.43943 107.74789 
L 181.553551 107.825452 
L 182.2279 107.903201 
L 182.34202 107.981138 
L 183.019827 108.059264 
L 183.133948 108.137578 
L 183.735674 108.216083 
L 183.849795 108.294779 
L 184.669388 108.373668 
L 184.783508 108.452749 
L 185.405984 108.532025 
L 185.520104 108.611496 
L 186.194453 108.691162 
L 186.308574 108.771026 
L 187.000213 108.851087 
L 187.114334 108.931348 
L 187.844014 109.011808 
L 187.958134 109.092469 
L 188.69473 109.173332 
L 188.808851 109.254398 
L 189.514323 109.335668 
L 189.628444 109.417143 
L 190.465328 109.498824 
L 190.579448 109.580712 
L 191.30567 109.662808 
L 191.419791 109.745113 
L 192.249758 109.827629 
L 192.363879 109.910355 
L 193.159264 109.993295 
L 193.273385 110.076447 
L 193.996148 110.159814 
L 194.110269 110.243397 
L 194.919487 110.327197 
L 195.033608 110.411215 
L 195.918906 110.495452 
L 196.033027 110.579909 
L 196.85262 110.664587 
L 196.966741 110.749488 
L 197.848581 110.834613 
L 197.962702 110.919962 
L 198.765004 111.005538 
L 198.879124 111.091341 
L 199.646844 111.177372 
L 199.760965 111.263633 
L 200.608223 111.350125 
L 200.722344 111.43685 
L 201.545395 111.523808 
L 201.659516 111.611 
L 202.582855 111.698428 
L 202.696975 111.786094 
L 203.492361 111.873998 
L 203.606481 111.962142 
L 204.536737 112.050528 
L 204.650857 112.139155 
L 205.556905 112.228027 
L 205.671026 112.317144 
L 206.653154 112.406507 
L 206.767274 112.496118 
L 207.707904 112.585978 
L 207.822025 112.676089 
L 208.658909 112.766453 
L 208.773029 112.857069 
L 209.744783 112.947941 
L 209.858904 113.039068 
L 210.799534 113.130454 
L 210.913654 113.222099 
L 211.885408 113.314004 
L 211.999528 113.406172 
L 212.864078 113.498604 
L 212.978198 113.5913 
L 213.929203 113.684264 
L 214.043324 113.777496 
L 214.980495 113.870997 
L 215.094616 113.96477 
L 215.972998 114.058816 
L 216.087119 114.153137 
L 217.148786 114.247734 
L 217.262906 114.342608 
L 218.151663 114.437762 
L 218.265784 114.533198 
L 219.182206 114.628916 
L 219.296327 114.724918 
L 220.26808 114.821207 
L 220.382201 114.917783 
L 221.38162 115.014649 
L 221.495741 115.111806 
L 222.585073 115.209257 
L 222.699194 115.307002 
L 223.695155 115.405044 
L 223.809275 115.503384 
L 224.898608 115.602025 
L 225.012728 115.700968 
L 226.008689 115.800214 
L 226.12281 115.899767 
L 227.19831 115.999627 
L 227.31243 116.099797 
L 228.263435 116.200279 
L 228.377555 116.301074 
L 229.411557 116.402184 
L 229.525677 116.503612 
L 230.601177 116.60536 
L 230.715297 116.707429 
L 231.832295 116.809821 
L 231.946416 116.912539 
L 233.146411 117.015585 
L 233.260531 117.11896 
L 234.384446 117.222668 
L 234.498566 117.326709 
L 235.529109 117.431086 
L 235.64323 117.535802 
L 236.787893 117.640858 
L 236.902014 117.746257 
L 238.012096 117.852001 
L 238.126216 117.958093 
L 239.191341 118.064534 
L 239.305462 118.171327 
L 240.453584 118.278474 
L 240.567704 118.385977 
L 241.61208 118.49384 
L 241.726201 118.602063 
L 242.832824 118.710651 
L 242.946945 118.819605 
L 244.150398 118.928927 
L 244.264518 119.038621 
L 245.371142 119.148689 
L 245.485262 119.259133 
L 246.560762 119.369955 
L 246.674882 119.481159 
L 247.221278 119.481159 
L 247.335398 119.592748 
L 247.833379 119.592748 
L 247.947499 119.704723 
L 248.452396 119.704723 
L 248.566517 119.817087 
L 249.04029 119.817087 
L 249.15441 119.929844 
L 249.676598 119.929844 
L 249.790719 120.042996 
L 250.30599 120.042996 
L 250.420111 120.156545 
L 250.880051 120.156545 
L 250.994172 120.270495 
L 251.557858 120.270495 
L 251.671979 120.384849 
L 252.180334 120.384849 
L 252.294454 120.499608 
L 252.792435 120.499608 
L 252.906556 120.614777 
L 253.394161 120.614777 
L 253.508282 120.730358 
L 254.03047 120.730358 
L 254.14459 120.846354 
L 254.697902 120.846354 
L 254.812023 120.962767 
L 255.393 120.962767 
L 255.507121 121.079602 
L 256.08464 121.079602 
L 256.19876 121.196861 
L 256.79357 121.196861 
L 256.907691 121.314547 
L 257.474835 121.314547 
L 257.588956 121.432663 
L 258.128435 121.432663 
L 258.242555 121.551213 
L 258.840824 121.551213 
L 258.954944 121.6702 
L 259.497881 121.6702 
L 259.612002 121.789626 
L 260.161855 121.789626 
L 260.275976 121.909496 
L 260.832746 121.909496 
L 260.946866 122.029811 
L 261.558968 122.029811 
L 261.673088 122.150577 
L 262.212567 122.150577 
L 262.326688 122.271796 
L 262.78317 122.271796 
L 262.89729 122.393471 
L 263.471351 122.393471 
L 263.585472 122.515607 
L 264.1457 122.515607 
L 264.25982 122.638206 
L 264.858089 122.638206 
L 264.972209 122.761272 
L 265.573936 122.761272 
L 265.688056 122.884808 
L 266.269034 122.884808 
L 266.383154 123.008819 
L 266.974506 123.008819 
L 267.088627 123.133308 
L 267.669604 123.133308 
L 267.783724 123.258278 
L 268.385451 123.258278 
L 268.499571 123.383734 
L 269.108214 123.383734 
L 269.222335 123.509679 
L 269.844811 123.509679 
L 269.958931 123.636116 
L 270.49841 123.636116 
L 270.612531 123.763051 
L 271.19005 123.763051 
L 271.30417 123.890486 
L 271.854024 123.890486 
L 271.968144 124.018426 
L 272.521456 124.018426 
L 272.635577 124.146875 
L 273.230387 124.146875 
L 273.344507 124.275836 
L 273.783698 124.275836 
L 273.897819 124.405314 
L 274.544502 124.405314 
L 274.658623 124.535314 
L 275.305306 124.535314 
L 275.419426 124.665838 
L 276.062651 124.665838 
L 276.176772 124.796892 
L 276.896077 124.796892 
L 277.010197 124.92848 
L 277.660339 124.92848 
L 277.774459 125.060606 
L 278.338145 125.060606 
L 278.452266 125.193275 
L 279.133531 125.193275 
L 279.247652 125.326491 
L 279.96004 125.326491 
L 280.074161 125.460258 
L 280.745051 125.460258 
L 280.859172 125.594582 
L 281.415942 125.594582 
L 281.530062 125.729466 
L 282.197495 125.729466 
L 282.311615 125.864916 
L 282.930633 125.864916 
L 283.044753 126.000937 
L 283.670687 126.000937 
L 283.784808 126.137532 
L 284.389992 126.137532 
L 284.504113 126.274708 
L 285.192294 126.274708 
L 285.306415 126.412468 
L 285.966931 126.412468 
L 286.081051 126.550819 
L 286.696611 126.550819 
L 286.810731 126.689764 
L 287.502371 126.689764 
L 287.616491 126.82931 
L 288.301215 126.82931 
L 288.415335 126.969461 
L 289.082767 126.969461 
L 289.196888 127.110223 
L 289.874695 127.110223 
L 289.988815 127.251601 
L 290.739244 127.251601 
L 290.853365 127.3936 
L 291.489673 127.3936 
L 291.603794 127.536226 
L 292.240102 127.536226 
L 292.354223 127.679485 
L 293.097736 127.679485 
L 293.211856 127.823382 
L 293.917329 127.823382 
L 294.031449 127.967923 
L 294.761129 127.967923 
L 294.87525 128.113113 
L 295.521933 128.113113 
L 295.636053 128.258959 
L 296.38994 128.258959 
L 296.504061 128.405466 
L 297.219908 128.405466 
L 297.334028 128.552641 
L 298.06025 128.552641 
L 298.174371 128.700489 
L 298.955923 128.700489 
L 299.070044 128.849017 
L 299.813557 128.849017 
L 299.927677 128.998231 
L 300.698855 128.998231 
L 300.812976 129.148137 
L 301.518448 129.148137 
L 301.632569 129.298743 
L 302.396831 129.298743 
L 302.510951 129.450054 
L 303.292504 129.450054 
L 303.406625 129.602076 
L 304.188177 129.602076 
L 304.302298 129.754818 
L 305.135724 129.754818 
L 305.249844 129.908285 
L 306.145518 129.908285 
L 306.259638 130.062485 
L 307.124188 130.062485 
L 307.238308 130.217424 
L 307.974905 130.217424 
L 308.089025 130.37311 
L 308.86712 130.37311 
L 308.98124 130.52955 
L 309.759335 130.52955 
L 309.873455 130.686751 
L 310.61351 130.686751 
L 310.72763 130.844721 
L 311.523016 130.844721 
L 311.637136 131.003468 
L 312.401398 131.003468 
L 312.515519 131.162998 
L 313.355861 131.162998 
L 313.469982 131.32332 
L 314.396779 131.32332 
L 314.510899 131.484441 
L 315.441155 131.484441 
L 315.555275 131.64637 
L 316.316079 131.64637 
L 316.430199 131.809115 
L 317.471117 131.809115 
L 317.585237 131.972684 
L 318.460162 131.972684 
L 318.574282 132.137085 
L 319.539119 132.137085 
L 319.65324 132.302327 
L 320.493582 132.302327 
L 320.607703 132.468419 
L 321.555249 132.468419 
L 321.66937 132.635369 
L 322.582334 132.635369 
L 322.696454 132.803187 
L 323.609419 132.803187 
L 323.723539 132.971881 
L 324.736791 132.971881 
L 324.850912 133.14146 
L 325.860706 133.14146 
L 325.974826 133.311934 
L 327.019202 133.311934 
L 327.133323 133.483313 
L 328.174241 133.483313 
L 328.288361 133.655605 
L 329.374235 133.655605 
L 329.488356 133.828822 
L 330.418611 133.828822 
L 330.532732 134.002972 
L 331.663563 134.002972 
L 331.777683 134.178066 
L 332.898139 134.178066 
L 333.01226 134.354114 
L 334.091218 134.354114 
L 334.205338 134.531127 
L 335.246256 134.531127 
L 335.360376 134.709116 
L 336.363254 134.709116 
L 336.477375 134.88809 
L 337.604747 134.88809 
L 337.718868 135.068061 
L 338.794367 135.068061 
L 338.908488 135.249041 
L 339.966697 135.249041 
L 340.080817 135.43104 
L 341.329227 135.43104 
L 341.443347 135.614071 
L 342.53268 135.614071 
L 342.6468 135.798144 
L 343.781089 135.798144 
L 343.89521 135.983272 
L 345.12287 135.983272 
L 345.236991 136.169468 
L 346.509608 136.169468 
L 346.623728 136.356742 
L 347.84793 136.356742 
L 347.962051 136.545109 
L 349.245042 136.545109 
L 349.359163 136.73458 
L 350.700944 136.73458 
L 350.815064 136.92517 
L 352.094598 136.92517 
L 352.208718 137.11689 
L 353.540125 137.11689 
L 353.654245 137.309755 
L 354.895738 137.309755 
L 355.009859 137.503778 
L 356.445011 137.503778 
L 356.559132 137.698974 
L 357.990826 137.698974 
L 358.104946 137.895356 
L 359.502058 137.895356 
L 359.616179 138.09294 
L 360.992542 138.09294 
L 361.106662 138.291739 
L 362.538357 138.291739 
L 362.652477 138.491769 
L 364.139502 138.491769 
L 364.253623 138.693046 
L 365.934307 138.693046 
L 366.048428 138.895584 
L 367.670323 138.895584 
L 367.784443 139.099401 
L 369.285301 139.099401 
L 369.399422 139.304511 
L 370.997109 139.304511 
L 371.11123 139.510932 
L 372.663961 139.510932 
L 372.778082 139.718681 
L 374.438017 139.718681 
L 374.552137 139.927774 
L 376.167116 139.927774 
L 376.281236 140.138229 
L 378.044918 140.138229 
L 378.159038 140.350065 
L 379.82589 140.350065 
L 379.94001 140.563298 
L 381.714066 140.563298 
L 381.828186 140.777949 
L 383.674864 140.777949 
L 383.788985 140.994035 
L 385.476586 140.994035 
L 385.590706 141.211577 
L 387.510006 141.211577 
L 387.624127 141.430593 
L 389.405099 141.430593 
L 389.519219 141.651105 
L 391.410854 141.651105 
L 391.524974 141.873131 
L 393.447733 141.873131 
L 393.561853 142.096695 
L 395.692103 142.096695 
L 395.806224 142.321816 
L 397.763564 142.321816 
L 397.877685 142.548517 
L 400.018309 142.548517 
L 400.13243 142.776821 
L 402.148559 142.776821 
L 402.26268 143.006749 
L 404.389472 143.006749 
L 404.503592 143.238326 
L 406.723756 143.238326 
L 406.837876 143.471574 
L 409.006167 143.471574 
L 409.120287 143.706519 
L 411.202122 143.706519 
L 411.316243 143.943185 
L 413.543323 143.943185 
L 413.657443 144.181598 
L 415.815359 144.181598 
L 415.929479 144.421783 
L 418.094312 144.421783 
L 418.208432 144.663768 
L 420.428595 144.663768 
L 420.542716 144.907579 
L 423.032619 144.907579 
L 423.146739 145.153244 
L 425.705806 145.153244 
L 425.819926 145.400791 
L 428.216458 145.400791 
L 428.330578 145.65025 
L 430.588782 145.65025 
L 430.702902 145.901651 
L 433.06831 145.901651 
L 433.18243 146.155023 
L 435.554754 146.155023 
L 435.668875 146.410398 
L 438.027366 146.410398 
L 438.141487 146.667808 
L 440.624473 146.667808 
L 440.738594 146.927286 
L 443.152416 146.927286 
L 443.266537 147.188864 
L 445.73569 147.188864 
L 445.849811 147.452578 
L 448.239426 147.452578 
L 448.353546 147.718463 
L 450.926446 147.718463 
L 451.040566 147.986554 
L 453.502803 147.986554 
L 453.616924 148.256888 
L 456.027288 148.256888 
L 456.141409 148.529504 
L 458.596729 148.529504 
L 458.71085 148.80444 
L 461.242251 148.80444 
L 461.356372 149.081736 
L 463.73907 149.081736 
L 463.853191 149.361433 
L 466.367301 149.361433 
L 466.481421 149.643573 
L 469.120027 149.643573 
L 469.234147 149.928198 
L 471.848545 149.928198 
L 471.962666 150.215354 
L 474.483692 150.215354 
L 474.597813 150.505085 
L 477.094632 150.505085 
L 477.208752 150.797438 
L 479.667531 150.797438 
L 479.781652 151.092461 
L 482.555127 151.092461 
L 482.669248 151.390203 
L 485.065779 151.390203 
L 485.179899 151.690715 
L 487.631762 151.690715 
L 487.745883 151.994048 
L 490.505525 151.994048 
L 490.619645 152.300257 
L 493.030009 152.300257 
L 493.14413 152.609396 
L 495.637491 152.609396 
L 495.751612 152.921522 
L 498.376384 152.921522 
L 498.490505 153.236693 
L 501.039197 153.236693 
L 501.153317 153.55497 
L 503.688176 153.55497 
L 503.802297 153.876413 
L 506.33024 153.876413 
L 506.444361 154.201087 
L 508.699106 154.201087 
L 508.813226 154.529057 
L 511.296213 154.529057 
L 511.410333 154.860391 
L 513.917527 154.860391 
L 514.031647 155.195159 
L 516.490426 155.195159 
L 516.604547 155.533432 
L 518.963038 155.533432 
L 519.077159 155.875285 
L 521.542854 155.875285 
L 521.656975 156.220794 
L 524.032757 156.220794 
L 524.146877 156.570038 
L 526.550325 156.570038 
L 526.664446 156.923099 
L 529.119766 156.923099 
L 529.233887 157.280062 
L 531.575087 157.280062 
L 531.689208 157.641013 
L 533.947411 157.641013 
L 534.061532 158.006043 
L 536.27132 158.006043 
L 536.385441 158.375244 
L 538.546815 158.375244 
L 538.660935 158.748714 
L 540.932972 158.748714 
L 541.047092 159.126552 
L 543.160051 159.126552 
L 543.274172 159.508862 
L 545.356007 159.508862 
L 545.470128 159.89575 
L 547.707582 159.89575 
L 547.821703 160.287328 
L 549.889705 160.287328 
L 550.003826 160.683711 
L 552.151367 160.683711 
L 552.265487 161.085018 
L 554.243577 161.085018 
L 554.357697 161.491373 
L 556.321954 161.491373 
L 556.436074 161.902904 
L 558.448746 161.902904 
L 558.562866 162.319746 
L 560.720782 162.319746 
L 560.834903 162.742037 
L 562.64354 162.742037 
L 562.757661 163.169921 
L 564.680419 163.169921 
L 564.79454 163.603549 
L 566.651592 163.603549 
L 566.765713 164.043077 
L 568.42219 164.043077 
L 568.53631 164.488667 
L 570.272326 164.488667 
L 570.386446 164.940489 
L 572.122462 164.940489 
L 572.236582 165.398721 
L 573.882685 165.398721 
L 573.996805 165.863546 
L 575.597951 165.863546 
L 575.712072 166.335157 
L 577.271719 166.335157 
L 577.385839 166.813755 
L 578.90053 166.813755 
L 579.014651 167.299551 
L 580.449803 167.299551 
L 580.563924 167.792763 
L 581.99216 167.792763 
L 582.10628 168.293623 
L 583.700509 168.293623 
L 583.81463 168.80237 
L 585.229033 168.80237 
L 585.343154 169.319258 
L 586.716058 169.319258 
L 586.830179 169.84455 
L 588.120087 169.84455 
L 588.234207 170.378526 
L 589.416911 170.378526 
L 589.531032 170.921476 
L 590.672237 170.921476 
L 590.786358 171.473708 
L 592.058975 171.473708 
L 592.173095 172.035545 
L 593.234762 172.035545 
L 593.348883 172.607326 
L 594.3898 172.607326 
L 594.503921 173.18941 
L 595.56213 173.18941 
L 595.67625 173.782175 
L 596.592673 173.782175 
L 596.706793 174.38602 
L 597.623216 174.38602 
L 597.737336 175.001368 
L 598.750588 175.001368 
L 598.864709 175.628665 
L 599.774215 175.628665 
L 599.888336 176.268385 
L 600.694096 176.268385 
L 600.808216 176.921029 
L 601.510231 176.921029 
L 601.624351 177.587131 
L 602.409362 177.587131 
L 602.523483 178.267257 
L 603.194373 178.267257 
L 603.308494 178.96201 
L 603.934427 178.96201 
L 604.048548 179.672034 
L 604.605318 179.672034 
L 604.719438 180.398015 
L 605.252001 180.398015 
L 605.366122 181.140686 
L 605.915975 181.140686 
L 606.030096 181.900834 
L 606.569575 181.900834 
L 606.683695 182.6793 
L 607.133261 182.6793 
L 607.247381 183.47699 
L 607.78686 183.47699 
L 607.900981 184.294876 
L 608.340172 184.294876 
L 608.454293 185.134009 
L 608.755156 185.134009 
L 608.869276 185.995521 
L 609.177056 185.995521 
L 609.291177 186.880639 
L 609.53325 186.880639 
L 609.647371 187.790693 
L 609.882528 187.790693 
L 609.996649 188.727129 
L 610.204141 188.727129 
L 610.318261 189.691523 
L 610.453131 189.691523 
L 610.567252 190.685595 
L 610.715954 190.685595 
L 610.830075 191.71123 
L 610.996068 191.71123 
L 611.110189 192.770498 
L 611.283099 192.770498 
L 611.397219 193.86568 
L 611.556296 193.86568 
L 611.670417 194.999298 
L 611.794912 194.999298 
L 611.909033 196.174147 
L 612.050819 196.174147 
L 612.164939 197.39334 
L 612.234103 197.39334 
L 612.348224 198.660357 
L 612.45197 198.660357 
L 612.56609 199.979103 
L 612.676753 199.979103 
L 612.790873 201.353982 
L 612.908452 201.353982 
L 613.022572 202.789987 
L 613.226606 202.789987 
L 613.340727 204.292806 
L 613.465222 204.292806 
L 613.579342 205.868962 
L 613.817958 205.868962 
L 613.932079 207.525981 
L 614.146487 207.525981 
L 614.260607 209.272611 
L 614.499223 209.272611 
L 614.613344 211.119101 
L 614.92804 211.119101 
L 615.04216 213.077567 
L 615.457144 213.077567 
L 615.571265 215.16247 
L 616.031205 215.16247 
L 616.145326 217.39127 
L 616.660597 217.39127 
L 616.774718 219.785312 
L 617.34532 219.785312 
L 617.459441 222.371075 
L 617.971254 222.371075 
L 618.085375 225.181959 
L 618.694018 225.181959 
L 618.808138 228.260934 
L 619.330326 228.260934 
L 619.444447 231.664583 
L 620.039257 231.664583 
L 620.153377 235.469539 
L 620.602943 235.469539 
L 620.717064 239.783242 
L 621.187379 239.783242 
L 621.301499 244.763047 
L 621.716483 244.763047 
L 621.830603 250.652906 
L 622.062303 250.652906 
L 622.176423 257.861511 
L 622.300918 257.861511 
L 622.415039 267.155019 
L 622.463454 267.155019 
L 622.577577 361 
L 622.577577 361 
" style="fill:none;stroke:#1f77b4;stroke-linecap:square;stroke-width:1.5;"/>
   </g>
   <g id="patch_3">
    <path d="M 90 315 
L 90 43.2 
" style="fill:none;stroke:#000000;stroke-linecap:square;stroke-linejoin:miter;stroke-width:0.8;"/>
   </g>
   <g id="patch_4">
    <path d="M 648 315 
L 648 43.2 
" style="fill:none;stroke:#000000;stroke-linecap:square;stroke-linejoin:miter;stroke-width:0.8;"/>
   </g>
   <g id="patch_5">
    <path d="M 90 315 
L 648 315 
" style="fill:none;stroke:#000000;stroke-linecap:square;stroke-linejoin:miter;stroke-width:0.8;"/>
   </g>
   <g id="patch_6">
    <path d="M 90 43.2 
L 648 43.2 
" style="fill:none;stroke:#000000;stroke-linecap:square;stroke-linejoin:miter;stroke-width:0.8;"/>
   </g>
  </g>
 </g>
 <defs>
  <clipPath id="pf3e8fa93ea">
   <rect height="271.8" width="558" x="90" y="43.2"/>
  </clipPath>
 </defs>
</svg>
